<?xml version="1.0" encoding="UTF-8" standalone="no"?>
<!-- Generator: Adobe Illustrator 19.0.0, SVG Export Plug-In . SVG Version: 6.00 Build 0)  -->

<svg
   xmlns:dc="http://purl.org/dc/elements/1.1/"
   xmlns:cc="http://creativecommons.org/ns#"
   xmlns:rdf="http://www.w3.org/1999/02/22-rdf-syntax-ns#"
   xmlns:svg="http://www.w3.org/2000/svg"
   xmlns="http://www.w3.org/2000/svg"
   xmlns:sodipodi="http://sodipodi.sourceforge.net/DTD/sodipodi-0.dtd"
   xmlns:inkscape="http://www.inkscape.org/namespaces/inkscape"
   version="1.1"
   id="Capa_1"
   x="0px"
   y="0px"
   viewBox="0 0 74.080803 197.04046"
   xml:space="preserve"
   sodipodi:docname="wind-arrow.svg"
   width="74.080803"
   height="197.04045"
   inkscape:version="0.92.2 5c3e80d, 2017-08-06"><metadata
     id="metadata49"><rdf:RDF><cc:Work
         rdf:about=""><dc:format>image/svg+xml</dc:format><dc:type
           rdf:resource="http://purl.org/dc/dcmitype/StillImage" /><dc:title></dc:title></cc:Work></rdf:RDF></metadata><defs
     id="defs47" /><sodipodi:namedview
     pagecolor="#ffffff"
     bordercolor="#666666"
     borderopacity="1"
     objecttolerance="10"
     gridtolerance="10"
     guidetolerance="10"
     inkscape:pageopacity="0"
     inkscape:pageshadow="2"
     inkscape:window-width="2880"
     inkscape:window-height="1756"
     id="namedview45"
     showgrid="true"
     inkscape:zoom="5.6568543"
     inkscape:cx="-34.982384"
     inkscape:cy="67.520473"
     inkscape:window-x="0"
     inkscape:window-y="0"
     inkscape:window-maximized="1"
     inkscape:current-layer="Capa_1"
     viewbox-height="2000"
     scale-x="1"
     inkscape:pagecheckerboard="false"><inkscape:grid
       type="xygrid"
       id="grid1834"
       originx="1.9926879"
       originy="-2.9595936" /></sodipodi:namedview><g
     id="g14"
     transform="matrix(0.14285714,0,0,0.14285714,1.3261165,215.62063)" /><g
     id="g16"
     transform="matrix(0.14285714,0,0,0.14285714,1.3261165,215.62063)" /><g
     id="g18"
     transform="matrix(0.14285714,0,0,0.14285714,1.3261165,215.62063)" /><g
     id="g20"
     transform="matrix(0.14285714,0,0,0.14285714,1.3261165,215.62063)" /><g
     id="g22"
     transform="matrix(0.14285714,0,0,0.14285714,1.3261165,215.62063)" /><g
     id="g24"
     transform="matrix(0.14285714,0,0,0.14285714,1.3261165,215.62063)" /><g
     id="g26"
     transform="matrix(0.14285714,0,0,0.14285714,1.3261165,215.62063)" /><g
     id="g28"
     transform="matrix(0.14285714,0,0,0.14285714,1.3261165,215.62063)" /><g
     id="g30"
     transform="matrix(0.14285714,0,0,0.14285714,1.3261165,215.62063)" /><g
     id="g32"
     transform="matrix(0.14285714,0,0,0.14285714,1.3261165,215.62063)" /><g
     id="g34"
     transform="matrix(0.14285714,0,0,0.14285714,1.3261165,215.62063)" /><g
     id="g36"
     transform="matrix(0.14285714,0,0,0.14285714,1.3261165,215.62063)" /><g
     id="g38"
     transform="matrix(0.14285714,0,0,0.14285714,1.3261165,215.62063)" /><g
     id="g40"
     transform="matrix(0.14285714,0,0,0.14285714,1.3261165,215.62063)" /><g
     id="g42"
     transform="matrix(0.14285714,0,0,0.14285714,1.3261165,215.62063)" /><g
     id="g193"
     transform="matrix(0.14285714,0,0,0.14285714,1.9926879,-3.0465714)"><g
       id="g136"><g
         id="g134"><path
           id="path132"
           d="M 487.552,259.113 252.885,24.446 c -4.16,-4.16 -10.923,-4.16 -15.083,0 L 3.136,259.113 C 1.131,261.118 0,263.827 0,266.665 v 192 c 0,4.309 2.603,8.213 6.592,9.856 3.989,1.664 8.555,0.747 11.627,-2.304 L 245.334,239.081 472.449,466.196 c 2.048,2.048 4.779,3.136 7.552,3.136 1.365,0 2.773,-0.256 4.075,-0.811 3.989,-1.643 6.592,-5.547 6.592,-9.856 v -192 c -0.001,-2.838 -1.132,-5.547 -3.116,-7.552 z"
           inkscape:connector-curvature="0" /></g></g><g
       id="g138" /><g
       id="g140" /><g
       id="g142" /><g
       id="g144" /><g
       id="g146" /><g
       id="g148" /><g
       id="g150" /><g
       id="g152" /><g
       id="g154" /><g
       id="g156" /><g
       id="g158" /><g
       id="g160" /><g
       id="g162" /><g
       id="g164" /><g
       id="g166" /></g><path
     style="fill:none;stroke:#000000;stroke-width:8;stroke-linecap:round;stroke-linejoin:round;stroke-miterlimit:4;stroke-dasharray:none;stroke-opacity:1"
     d="m 4.0404011,158.00003 33.0000009,-33 33,33 v 0"
     id="path1836"
     inkscape:connector-curvature="0" /><path
     inkscape:connector-curvature="0"
     id="path1838"
     d="m 4.040401,193.00004 33.000001,-33 33,33 v 0"
     style="fill:none;stroke:#000000;stroke-width:8;stroke-linecap:round;stroke-linejoin:round;stroke-miterlimit:4;stroke-dasharray:none;stroke-opacity:1" /></svg>