<?xml version="1.0" encoding="iso-8859-1"?>
<!-- Generator: Adobe Illustrator 19.0.0, SVG Export Plug-In . SVG Version: 6.00 Build 0)  -->
<svg version="1.1" id="Capa_1" xmlns="http://www.w3.org/2000/svg" xmlns:xlink="http://www.w3.org/1999/xlink" x="0px" y="0px"
	 viewBox="0 0 490 490" style="enable-background:new 0 0 490 490;" xml:space="preserve">
<g>
	<path d="M245,0C109.69,0,0,109.69,0,245s109.69,245,245,245s245-109.69,245-245S380.31,0,245,0z M192.644,304.434
		c-8.341,3.107-24.635,7.362-42.077,7.362c-22.101,0-38.784-5.622-51.195-17.441c-11.633-11.06-18.421-28.316-18.236-48.087
		c0-41.3,29.481-67.877,72.723-67.877c16.091,0,28.704,3.292,34.715,6.214l-5.234,19.198c-7.176-3.107-15.906-5.623-29.666-5.623
		c-27.928,0-47.514,16.48-47.514,46.923c0,29.666,18.217,47.31,45.368,47.31c8.545,0,14.944-1.165,18.033-2.719v-32.57h-23.063
		v-18.81h46.145V304.434z M293.701,248.006c-9.506,9.507-24.431,13.964-41.299,13.964c-4.476,0-8.545-0.204-11.653-0.777v49.253
		h-23.655V181.497c8.544-1.553,20.363-2.719,36.454-2.719c17.459,0,30.258,3.681,38.599,10.672
		c7.75,6.399,12.798,16.664,12.798,28.889C304.946,230.749,301.063,241.033,293.701,248.006z M354.976,312.388
		c-13.761,0-28.113-3.884-35.289-8.139l5.234-19.789c7.75,4.457,19.383,8.341,31.608,8.341c15.314,0,23.841-7.176,23.841-17.848
		c0-9.877-6.584-15.702-23.267-21.714c-21.511-7.749-35.29-19.198-35.29-38.007c0-21.325,17.848-37.619,46.146-37.619
		c14.168,0,24.635,3.107,31.423,6.603l-5.826,19.199c-4.642-2.535-13.76-6.215-25.967-6.215c-15.129,0-21.731,8.139-21.731,15.703
		c0,10.098,7.564,14.74,25.024,21.528c22.674,8.526,33.734,19.975,33.734,38.785C404.617,294.151,388.712,312.388,354.976,312.388z"
		/>
	<path d="M254.528,197.014c-6.602,0-11.244,0.574-13.779,1.165v44.204c2.923,0.777,6.788,0.962,11.653,0.962
		c17.829,0,28.686-8.711,28.686-24.044C281.088,204.764,271.008,197.014,254.528,197.014z"/>
</g>
<g>
</g>
<g>
</g>
<g>
</g>
<g>
</g>
<g>
</g>
<g>
</g>
<g>
</g>
<g>
</g>
<g>
</g>
<g>
</g>
<g>
</g>
<g>
</g>
<g>
</g>
<g>
</g>
<g>
</g>
</svg>
