<?xml version="1.0" encoding="iso-8859-1"?>
<!-- Generator: Adobe Illustrator 19.0.0, SVG Export Plug-In . SVG Version: 6.00 Build 0)  -->
<svg version="1.1" id="Capa_1" xmlns="http://www.w3.org/2000/svg" xmlns:xlink="http://www.w3.org/1999/xlink" x="0px" y="0px"
	 viewBox="0 0 490 490" style="enable-background:new 0 0 490 490;" xml:space="preserve">
<g>
	<polygon points="341.705,295.917 327.858,254.817 314.011,295.917 269.569,295.917 305.517,321.114 291.73,362.102 327.873,336.77 
		364.016,362.102 350.199,321.114 386.177,295.917 	"/>
	<path d="M335.529,99.857v74.42h-15.313v-72.848L171.01,5.241v72.084h-15.313V3.659L0,82.979V490l155.697-97.058v-78.886h15.313
		v78.91l149.207,93.013V411h15.313v73.679L490,391.948V0L335.529,99.857z M171.01,271.528h-15.313v-54.573h15.313V271.528z
		 M171.01,174.426h-15.313v-54.573h15.313V174.426z M393.415,401.4l-65.542-45.938L262.361,401.4l25.002-74.305l-66.334-46.491
		h81.976l24.853-73.729l24.853,73.729h82.006l-66.334,46.491L393.415,401.4z"/>
</g>
<g>
</g>
<g>
</g>
<g>
</g>
<g>
</g>
<g>
</g>
<g>
</g>
<g>
</g>
<g>
</g>
<g>
</g>
<g>
</g>
<g>
</g>
<g>
</g>
<g>
</g>
<g>
</g>
<g>
</g>
</svg>
