<?xml version="1.0" encoding="iso-8859-1"?>
<!-- Generator: Adobe Illustrator 19.0.0, SVG Export Plug-In . SVG Version: 6.00 Build 0)  -->
<svg version="1.1" id="Capa_1" xmlns="http://www.w3.org/2000/svg" xmlns:xlink="http://www.w3.org/1999/xlink" x="0px" y="0px"
	 viewBox="0 0 490 490" style="enable-background:new 0 0 490 490;" xml:space="preserve">
<g>
	<path d="M0,82.979V490l155.697-97.058V3.659L0,82.979z M111.195,289.188l-1.809-38.304c-0.553-12.112-1.256-26.737-1.107-39.41
		h-0.419c-3.066,11.417-6.968,24.09-11.14,35.926l-13.653,40.666H69.833l-12.531-40.106c-3.619-11.978-6.953-24.786-9.466-36.487
		h-0.284c-0.419,12.255-0.972,27.156-1.66,39.964l-2.094,37.75H27.784l6.266-93.864h22.565l12.247,37.735
		c3.35,11.006,6.266,22.146,8.628,32.591h0.419c2.512-10.176,5.712-21.728,9.331-32.726l12.95-37.601h22.281l5.443,93.864H111.195z"
		/>
	<path d="M244.91,208.969h-0.284c-1.391,5.428-2.781,11.978-4.456,17.548l-7.238,23.111h24.09l-7.387-23.111
		C247.826,220.805,246.301,214.397,244.91,208.969z"/>
	<path d="M171.009,5.241v387.725l149.207,93.013V101.428L171.009,5.241z M268.432,289.188l-8.494-26.603h-29.803l-8.075,26.603
		h-17.675l30.072-93.864h21.862l30.505,93.864H268.432z"/>
	<path d="M409.533,207.713c-4.725,0-8.075,0.419-9.884,0.837v31.754c2.094,0.553,4.875,0.695,8.359,0.695
		c12.815,0,20.606-6.266,20.606-17.271C428.613,213.283,421.376,207.713,409.533,207.713z"/>
	<path d="M335.529,99.857v384.822L490,391.948V0L335.529,99.857z M437.675,244.342c-6.834,6.826-17.556,10.026-29.668,10.026
		c-3.2,0-6.131-0.134-8.359-0.553v35.373h-16.987v-92.615c6.131-1.114,14.625-1.944,26.184-1.944
		c12.531,0,21.728,2.647,27.709,7.656c5.578,4.598,9.197,11.978,9.197,20.748C445.75,231.945,442.969,239.325,437.675,244.342z"/>
</g>
<g>
</g>
<g>
</g>
<g>
</g>
<g>
</g>
<g>
</g>
<g>
</g>
<g>
</g>
<g>
</g>
<g>
</g>
<g>
</g>
<g>
</g>
<g>
</g>
<g>
</g>
<g>
</g>
<g>
</g>
</svg>
