<?xml version="1.0" encoding="iso-8859-1"?>
<!-- Generator: Adobe Illustrator 19.0.0, SVG Export Plug-In . SVG Version: 6.00 Build 0)  -->
<svg version="1.1" id="Capa_1" xmlns="http://www.w3.org/2000/svg" xmlns:xlink="http://www.w3.org/1999/xlink" x="0px" y="0px"
	 viewBox="0 0 490 490" style="enable-background:new 0 0 490 490;" xml:space="preserve">
<g>
	<path d="M168.165,149.005c3.909-39.156,36.661-69.945,76.835-69.945c40.175,0,72.926,30.789,76.835,69.945h80.8
		C397.901,65.945,329.245,0,245.001,0C160.755,0,92.099,65.945,87.364,149.005H168.165z"/>
	<path d="M245.001,94.372c-34.349,0-62.297,27.941-62.297,62.289c0,34.348,27.948,62.297,62.297,62.297
		c34.348,0,62.297-27.948,62.297-62.297C307.297,122.313,279.349,94.372,245.001,94.372z"/>
	<path d="M321.836,164.318c-3.91,39.163-36.66,69.953-76.835,69.953s-72.926-30.79-76.835-69.953H87.328
		c0.489,12.41,2.114,24.529,5.301,36.043c1.491,5.388,3.252,10.663,5.283,15.803l4.793,10.894L245.001,490l142.481-263.316
		l4.321-9.818c2.149-5.363,4.011-10.871,5.57-16.505c3.187-11.514,4.811-23.633,5.3-36.043H321.836z"/>
</g>
<g>
</g>
<g>
</g>
<g>
</g>
<g>
</g>
<g>
</g>
<g>
</g>
<g>
</g>
<g>
</g>
<g>
</g>
<g>
</g>
<g>
</g>
<g>
</g>
<g>
</g>
<g>
</g>
<g>
</g>
</svg>
