<?xml version="1.0" encoding="iso-8859-1"?>
<!-- Generator: Adobe Illustrator 19.0.0, SVG Export Plug-In . SVG Version: 6.00 Build 0)  -->
<svg version="1.1" id="Capa_1" xmlns="http://www.w3.org/2000/svg" xmlns:xlink="http://www.w3.org/1999/xlink" x="0px" y="0px"
	 viewBox="0 0 490 490" style="enable-background:new 0 0 490 490;" xml:space="preserve">
<g>
	<path d="M245.001,94.372c-34.349,0-62.297,27.941-62.297,62.289c0,34.348,27.948,62.297,62.297,62.297
		c34.348,0,62.297-27.948,62.297-62.297C307.297,122.313,279.349,94.372,245.001,94.372z"/>
	<polygon points="244.716,321.219 187.707,384.129 245.001,490 302.082,384.508 	"/>
	<path d="M245.001,0C157.687,0,86.905,70.781,86.905,158.094c0,14.641,1.999,28.812,5.724,42.266
		c1.491,5.388,3.252,10.663,5.283,15.803l4.793,10.894l77.277,142.8l64.733-71.428l65.089,71.806l77.676-143.552l4.321-9.818
		c2.149-5.363,4.011-10.871,5.57-16.505c3.724-13.455,5.723-27.626,5.723-42.266C403.095,70.781,332.314,0,245.001,0z
		 M245.001,234.271c-42.797,0-77.609-34.812-77.609-77.609c0-42.79,34.812-77.602,77.609-77.602
		c42.797,0,77.609,34.812,77.609,77.602C322.61,199.459,287.798,234.271,245.001,234.271z"/>
</g>
<g>
</g>
<g>
</g>
<g>
</g>
<g>
</g>
<g>
</g>
<g>
</g>
<g>
</g>
<g>
</g>
<g>
</g>
<g>
</g>
<g>
</g>
<g>
</g>
<g>
</g>
<g>
</g>
<g>
</g>
</svg>
