<?xml version="1.0" encoding="iso-8859-1"?>
<!-- Generator: Adobe Illustrator 19.0.0, SVG Export Plug-In . SVG Version: 6.00 Build 0)  -->
<svg version="1.1" id="Capa_1" xmlns="http://www.w3.org/2000/svg" xmlns:xlink="http://www.w3.org/1999/xlink" x="0px" y="0px"
	 viewBox="0 0 490 490" style="enable-background:new 0 0 490 490;" xml:space="preserve">
<g>
	<path d="M245,0C157.687,0,86.905,70.782,86.905,158.095c0,14.64,1.999,28.811,5.724,42.266c1.491,5.388,3.252,10.663,5.283,15.804
		l4.794,10.893L245,490l142.481-263.316l4.321-9.818c2.149-5.363,4.011-10.87,5.57-16.505c3.724-13.455,5.724-27.626,5.724-42.266
		C403.095,70.782,332.313,0,245,0z M242.727,252.009c-8.509,0-14.341-6.565-14.341-15.073c0-8.987,6.071-15.313,14.58-15.313
		c8.494,0,14.326,6.325,14.326,15.313C257.292,245.444,251.714,252.009,242.727,252.009z M266.294,160.881
		c-10.692,12.636-14.58,23.328-13.847,35.724l0.239,6.311h-18.961l-0.479-6.311c-1.465-13.129,2.916-27.47,15.058-42.035
		c10.931-12.89,17.017-22.371,17.017-33.302c0-12.396-7.776-20.651-23.088-20.89c-8.748,0-18.468,2.916-24.539,7.537l-5.832-15.313
		c8.015-5.832,21.862-9.72,34.752-9.72c27.933,0,40.569,17.257,40.569,35.709C287.184,135.131,277.958,147.034,266.294,160.881z"/>
</g>
<g>
</g>
<g>
</g>
<g>
</g>
<g>
</g>
<g>
</g>
<g>
</g>
<g>
</g>
<g>
</g>
<g>
</g>
<g>
</g>
<g>
</g>
<g>
</g>
<g>
</g>
<g>
</g>
<g>
</g>
</svg>
