<?xml version="1.0" encoding="iso-8859-1"?>
<!-- Generator: Adobe Illustrator 19.0.0, SVG Export Plug-In . SVG Version: 6.00 Build 0)  -->
<svg version="1.1" id="Capa_1" xmlns="http://www.w3.org/2000/svg" xmlns:xlink="http://www.w3.org/1999/xlink" x="0px" y="0px"
	 viewBox="0 0 490 490" style="enable-background:new 0 0 490 490;" xml:space="preserve">
<g>
	<path d="M139.113,83.96c-29.713,0-53.893,24.18-53.893,53.893s24.18,53.893,53.893,53.893c29.713,0,53.893-24.18,53.893-53.893
		S168.826,83.96,139.113,83.96z"/>
	<path d="M139.108,0C62.281,0,0,62.281,0,139.108c0,12.882,1.759,25.351,5.036,37.19c1.312,4.74,2.863,9.383,4.65,13.905
		l4.217,9.585l125.206,231.364l125.37-231.693l3.801-8.638c1.891-4.719,3.53-9.566,4.902-14.523
		c3.277-11.839,5.036-24.309,5.036-37.19C278.217,62.281,215.936,0,139.108,0z M139.113,207.058
		c-38.162,0-69.205-31.044-69.205-69.205s31.044-69.205,69.205-69.205c38.162,0,69.205,31.044,69.205,69.205
		S177.275,207.058,139.113,207.058z"/>
	<path d="M378.984,267.969c-61.313,0-111.016,49.703-111.016,111.016S317.672,490,378.984,490S490,440.297,490,378.984
		S440.297,267.969,378.984,267.969z M379.29,449.524c-6.816,0-11.493-5.247-11.493-12.063c0-7.212,4.867-12.269,11.683-12.269
		c6.816,0,11.492,5.057,11.492,12.269C390.972,444.277,386.486,449.524,379.29,449.524z M398.17,376.526
		c-8.56,10.113-11.684,18.689-11.097,28.613l0.206,5.057h-15.185l-0.396-5.057c-1.174-10.51,2.33-22.002,12.079-33.685
		c8.751-10.32,13.617-17.914,13.617-26.663c0-9.94-6.23-16.55-18.484-16.74c-7.023,0-14.806,2.33-19.672,6.023l-4.676-12.253
		c6.436-4.677,17.532-7.799,27.851-7.799c22.384,0,32.513,13.823,32.513,28.629C414.925,355.888,407.522,365.43,398.17,376.526z"/>
</g>
<g>
</g>
<g>
</g>
<g>
</g>
<g>
</g>
<g>
</g>
<g>
</g>
<g>
</g>
<g>
</g>
<g>
</g>
<g>
</g>
<g>
</g>
<g>
</g>
<g>
</g>
<g>
</g>
<g>
</g>
</svg>
