<?xml version="1.0" encoding="iso-8859-1"?>
<!-- Generator: Adobe Illustrator 19.0.0, SVG Export Plug-In . SVG Version: 6.00 Build 0)  -->
<svg version="1.1" id="Capa_1" xmlns="http://www.w3.org/2000/svg" xmlns:xlink="http://www.w3.org/1999/xlink" x="0px" y="0px"
	 viewBox="0 0 490 490" style="enable-background:new 0 0 490 490;" xml:space="preserve">
<g>
	<path d="M245,0C157.687,0,86.905,70.782,86.905,158.095c0,14.64,1.999,28.811,5.724,42.266c1.491,5.388,3.252,10.663,5.283,15.804
		l4.794,10.893L245,490l142.481-263.316l4.321-9.818c2.149-5.363,4.011-10.87,5.57-16.505c3.724-13.455,5.723-27.626,5.723-42.266
		C403.095,70.782,332.313,0,245,0z M177.727,101.97l0.004-0.005c0.024-0.03,0.049-0.06,0.073-0.089l0.003-0.004
		c0.024-0.03,0.049-0.06,0.073-0.089l0.003-0.004c0.049-0.061,0.099-0.121,0.15-0.182v-0.001c0.025-0.03,0.049-0.059,0.074-0.089
		c0.002-0.002,0.002-0.003,0.002-0.003c0.025-0.03,0.049-0.058,0.072-0.086l0.008-0.011c0.022-0.027,0.046-0.055,0.068-0.082
		l0.009-0.011c0.022-0.027,0.045-0.053,0.067-0.08c0,0,0.007-0.009,0.011-0.014c0.022-0.027,0.045-0.054,0.068-0.081
		c0.002-0.002,0.003-0.004,0.003-0.004c0.024-0.03,0.048-0.057,0.071-0.085c0,0,0.004-0.005,0.006-0.007
		c0.023-0.027,0.045-0.054,0.068-0.081c0.003-0.004,0.007-0.009,0.007-0.009c0.025-0.03,0.046-0.054,0.067-0.08
		c0.006-0.006,0.011-0.013,0.011-0.013c0.026-0.031,0.047-0.055,0.067-0.079c0.006-0.007,0.01-0.013,0.01-0.013
		c0.026-0.031,0.048-0.056,0.069-0.081c0.006-0.007,0.008-0.01,0.008-0.01c0.027-0.032,0.049-0.057,0.07-0.083
		c0.006-0.006,0.007-0.007,0.007-0.007c0.025-0.03,0.046-0.053,0.065-0.077l0.015-0.018c0.021-0.023,0.041-0.048,0.061-0.071
		l0.017-0.02c0.02-0.022,0.04-0.047,0.06-0.07l0.02-0.023c0.019-0.023,0.039-0.047,0.059-0.069c0.007-0.008,0.014-0.017,0.021-0.025
		c0.019-0.022,0.037-0.044,0.057-0.066c0.007-0.008,0.017-0.02,0.023-0.028c0.02-0.021,0.038-0.044,0.058-0.066l0.02-0.023
		c0.018-0.02,0.034-0.038,0.05-0.058c0.009-0.01,0.018-0.021,0.027-0.031c0.017-0.021,0.034-0.039,0.051-0.06
		c0.007-0.008,0.014-0.016,0.021-0.024c0.019-0.021,0.037-0.043,0.056-0.064c0.009-0.01,0.018-0.021,0.027-0.031
		c0.018-0.021,0.036-0.041,0.054-0.062c0.008-0.01,0.018-0.021,0.026-0.031c0.019-0.021,0.036-0.04,0.053-0.061
		c0.011-0.012,0.019-0.021,0.029-0.034c0.017-0.019,0.033-0.036,0.049-0.055c0.01-0.012,0.02-0.023,0.031-0.036
		c0.013-0.015,0.026-0.03,0.039-0.045c0.014-0.016,0.028-0.032,0.042-0.049c0.012-0.013,0.025-0.028,0.037-0.042
		c0.012-0.014,0.027-0.031,0.04-0.045c0.013-0.015,0.026-0.03,0.039-0.045c0.01-0.012,0.022-0.025,0.033-0.037
		c0.017-0.019,0.033-0.037,0.05-0.056c0.01-0.012,0.021-0.024,0.032-0.036c0.016-0.018,0.033-0.035,0.049-0.053
		c0.012-0.014,0.024-0.027,0.036-0.042c0.011-0.011,0.022-0.024,0.033-0.036c0.016-0.018,0.032-0.036,0.049-0.054
		c0.01-0.011,0.021-0.022,0.031-0.035c0.018-0.021,0.035-0.039,0.053-0.06c0,0,0.018-0.02,0.027-0.03
		c0.02-0.022,0.037-0.041,0.057-0.064c0.008-0.009,0.016-0.018,0.024-0.027c0.021-0.024,0.042-0.047,0.064-0.071l0.019-0.021
		c0.015-0.017,0.027-0.03,0.041-0.046l0.002-0.002c0.027-0.03,0.054-0.061,0.081-0.091c0.008-0.007,0.015-0.016,0.021-0.023
		c0.021-0.022,0.041-0.046,0.062-0.068c0.007-0.007,0.015-0.017,0.015-0.017c0.028-0.03,0.049-0.053,0.069-0.076
		c0.007-0.007,0.015-0.016,0.021-0.023c0.022-0.024,0.043-0.047,0.064-0.071c0,0,0.012-0.013,0.019-0.021
		c0.025-0.028,0.05-0.053,0.075-0.081c0.003-0.004,0.006-0.007,0.008-0.009c0.044-0.048,0.086-0.093,0.13-0.141
		c0,0,0.004-0.005,0.006-0.007c0.027-0.03,0.053-0.058,0.081-0.088l0.007-0.008c0.026-0.028,0.054-0.059,0.079-0.086
		c0.003-0.003,0.006-0.006,0.006-0.006c0.031-0.033,0.059-0.063,0.086-0.093l0.002-0.002c2.286-2.463,4.711-4.791,7.268-6.975
		l9.947,11.641c-6.442,5.504-11.807,12.029-15.943,19.395l-13.351-7.499C171.815,109.904,174.611,105.802,177.727,101.97z
		 M158.475,161.727v-0.003c-0.001-0.021-0.003-0.043-0.004-0.064c0-0.003,0,0.001,0-0.002c-0.001-0.021-0.003-0.042-0.004-0.064
		v-0.004c-0.001-0.02-0.003-0.04-0.004-0.061v-0.008c-0.001-0.018-0.003-0.036-0.004-0.055v-0.015
		c-0.001-0.018-0.003-0.035-0.004-0.052c0-0.004,0-0.01,0-0.01c-0.001-0.021-0.002-0.039-0.003-0.058c0,0-0.001-0.007-0.001-0.013
		c-0.001-0.018-0.002-0.035-0.003-0.053c-0.001-0.006-0.001-0.008-0.001-0.008c-0.001-0.024-0.002-0.042-0.003-0.06
		c0,0-0.001-0.011-0.001-0.014c-0.001-0.018-0.002-0.036-0.003-0.053v-0.013c-0.001-0.018-0.002-0.036-0.003-0.055
		c-0.001-0.003-0.001-0.009-0.001-0.009c-0.001-0.021-0.002-0.038-0.003-0.056c0,0-0.001-0.011-0.001-0.017
		c-0.001-0.017-0.002-0.034-0.002-0.05l-0.001-0.018c-0.001-0.017-0.002-0.034-0.003-0.051l-0.001-0.011
		c-0.001-0.019-0.002-0.037-0.002-0.055l-0.001-0.014c-0.001-0.018-0.002-0.036-0.003-0.054c0-0.006,0-0.005,0-0.005
		c-0.001-0.024-0.002-0.043-0.003-0.062c0,0-0.001-0.01-0.001-0.017c-0.001-0.017-0.002-0.034-0.002-0.051l-0.001-0.008
		c-0.007-0.15-0.013-0.301-0.019-0.451l-0.001-0.01c-0.001-0.02-0.001-0.039-0.002-0.059l-0.001-0.008
		c0-0.018-0.001-0.036-0.002-0.054c0,0,0-0.008,0-0.014c-0.001-0.017-0.002-0.034-0.002-0.049c-0.001-0.009-0.001-0.011-0.001-0.011
		c-0.001-0.022-0.001-0.036-0.002-0.05c0-0.009-0.001-0.019-0.001-0.027c-0.001-0.014-0.001-0.027-0.002-0.041
		c0-0.011,0-0.016,0-0.016c-0.001-0.024-0.002-0.037-0.002-0.05c0,0-0.001-0.021-0.001-0.03c-0.001-0.014-0.001-0.027-0.002-0.04
		c0-0.009,0-0.02,0-0.02c-0.001-0.021-0.002-0.035-0.002-0.048c0,0-0.001-0.021-0.001-0.029c0,0-0.001-0.027-0.002-0.04
		c0-0.009,0-0.02,0-0.02c-0.001-0.021-0.001-0.034-0.002-0.047c0,0-0.001-0.019-0.001-0.03c0,0-0.001-0.026-0.001-0.039
		c-0.001-0.012-0.001-0.019-0.001-0.031c-0.001-0.011-0.001-0.022-0.001-0.022c-0.001-0.023-0.001-0.035-0.002-0.047
		c0,0,0-0.023-0.001-0.035c0,0,0-0.023-0.001-0.031c0-0.012-0.001-0.024-0.001-0.024c0-0.021-0.001-0.035-0.001-0.035
		c0-0.021-0.001-0.035-0.001-0.049c0-0.008-0.001-0.02-0.001-0.028c0-0.012-0.001-0.025-0.001-0.037
		c0-0.012-0.001-0.021-0.001-0.021c0-0.023-0.001-0.036-0.001-0.049c0,0-0.001-0.019-0.001-0.028c0-0.013-0.001-0.027-0.001-0.04
		c0-0.008,0-0.017-0.001-0.026c0-0.014-0.001-0.029-0.001-0.044c0,0,0-0.015-0.001-0.023c0-0.014,0-0.028-0.001-0.042
		c0-0.011,0-0.024,0-0.024c-0.001-0.023-0.001-0.034-0.001-0.045c0,0-0.001-0.025-0.001-0.034c-0.001-0.011-0.001-0.022-0.001-0.034
		c0-0.012-0.001-0.017-0.001-0.029c-0.001-0.036-0.002-0.072-0.002-0.108c-0.001-0.023-0.001-0.046-0.002-0.068
		c0-0.007,0-0.016,0-0.022c-0.001-0.018-0.001-0.031-0.001-0.048c-0.001-0.009-0.001-0.019-0.001-0.027
		c0-0.012-0.001-0.028-0.001-0.028c0-0.023,0-0.034,0-0.046c0,0-0.001-0.021-0.001-0.036c0-0.009-0.001-0.019-0.001-0.028
		c0-0.011,0-0.028,0-0.028c-0.001-0.021-0.001-0.032-0.001-0.032c0-0.021-0.001-0.037-0.001-0.049c0-0.012,0-0.022,0-0.035
		c-0.001-0.011-0.001-0.021-0.001-0.032c0-0.012,0-0.024-0.001-0.037c0,0,0-0.022,0-0.035c0-0.011,0-0.022-0.001-0.034
		c0-0.011,0-0.021,0-0.033c0-0.012-0.001-0.024-0.001-0.036c0,0,0-0.022,0-0.034c0-0.012-0.001-0.023-0.001-0.035
		c0-0.008,0-0.023,0-0.023c0-0.021,0-0.032,0-0.032c-0.001-0.023-0.001-0.036-0.001-0.049c0-0.01,0-0.021,0-0.031
		c-0.001-0.011-0.001-0.024-0.001-0.035c0-0.012,0-0.023,0-0.023c0-0.023-0.001-0.034-0.001-0.046c0,0,0-0.023,0-0.035
		c0-0.012,0-0.021,0-0.034c-0.001-0.011-0.001-0.022-0.001-0.022c0-0.023,0-0.036,0-0.048c0,0,0-0.022,0-0.034l-0.001-0.034
		c0-0.011,0-0.023,0-0.023c0-0.023,0-0.035,0-0.046c0,0-0.001-0.023-0.001-0.035c0-0.011,0-0.02,0-0.032c0-0.012,0-0.023,0-0.023
		c0-0.024,0-0.036,0-0.049c0,0,0-0.021-0.001-0.033c0-0.011,0-0.023,0-0.035c0-0.011,0-0.022,0-0.022c0-0.023,0-0.037,0-0.048
		c0,0,0-0.021,0-0.033s0-0.027,0-0.027c0-0.021,0-0.031,0-0.031c-0.001-0.021-0.001-0.042-0.001-0.053c0-0.008,0-0.017,0-0.025
		c0-0.015,0-0.028,0-0.043v-0.027c0-0.014,0-0.028,0-0.043c0-0.008,0-0.017,0-0.025c0-0.023,0-0.046,0-0.069
		c0-0.033,0-0.065,0-0.098v-0.02c0-0.032,0-0.064,0-0.096c0-0.007,0-0.005,0-0.005c0-0.036,0.001-0.064,0.001-0.094v-0.021
		c0-0.032,0-0.063,0-0.094c0-0.006,0-0.009,0-0.009c0-0.035,0.001-0.063,0.001-0.092v-0.017c0-0.032,0-0.065,0.001-0.096
		c0-0.006,0-0.012,0-0.019c0-0.028,0-0.057,0-0.086l0.001-0.014c0-0.032,0-0.064,0.001-0.095c0-0.006,0-0.016,0-0.021
		c0-0.031,0-0.062,0.001-0.092v-0.004c0-0.033,0.001-0.065,0.001-0.098c0-0.007,0-0.013,0-0.019
		c0.001-0.066,0.002-0.132,0.003-0.197c0,0,0-0.01,0-0.019c0.001-0.033,0.001-0.065,0.002-0.098v-0.005
		c0.001-0.031,0.001-0.063,0.002-0.094c0,0,0-0.013,0-0.019c0.001-0.033,0.001-0.064,0.002-0.097c0,0,0-0.005,0-0.01
		c0.001-0.031,0.001-0.062,0.002-0.093c0,0,0-0.007,0-0.013c0.001-0.033,0.002-0.066,0.002-0.099l0.001-0.012
		c0-0.033,0.001-0.066,0.002-0.1v-0.001c0.001-0.035,0.002-0.068,0.003-0.103v-0.01c0.002-0.069,0.003-0.138,0.005-0.208v-0.004
		c0.002-0.07,0.004-0.14,0.006-0.211l0.001-0.004c0.002-0.07,0.004-0.141,0.006-0.212v-0.003c0.114-3.697,0.459-7.337,1.021-10.904
		l15.126,2.385c-0.58,3.682-0.875,7.459-0.875,11.223c0,4.68,0.454,9.355,1.35,13.897l-15.024,2.961
		C159.21,169.649,158.706,165.724,158.475,161.727z M191.277,224.644c-4.267-3.376-8.207-7.14-11.77-11.247l-0.007-0.007
		c-0.025-0.029-0.051-0.059-0.077-0.088c-0.003-0.004-0.006-0.008-0.008-0.01c-0.025-0.029-0.051-0.059-0.076-0.088l-0.008-0.008
		c-0.071-0.082-0.137-0.16-0.208-0.242c0,0-0.007-0.008-0.009-0.011c-0.025-0.028-0.049-0.057-0.074-0.085
		c-0.004-0.005-0.008-0.008-0.01-0.013c-0.025-0.029-0.047-0.054-0.071-0.083c-0.005-0.005-0.008-0.009-0.012-0.014
		c-0.024-0.029-0.047-0.054-0.071-0.083l-0.012-0.014c-0.022-0.027-0.045-0.054-0.067-0.08c-0.005-0.006-0.01-0.012-0.01-0.012
		c-0.047-0.054-0.084-0.099-0.126-0.149c-0.004-0.006-0.007-0.009-0.007-0.009c-0.027-0.032-0.051-0.06-0.074-0.087
		c0,0-0.01-0.012-0.016-0.019c-0.021-0.025-0.042-0.05-0.063-0.076l-0.02-0.023c-0.02-0.023-0.041-0.049-0.06-0.072l-0.021-0.023
		c-0.022-0.027-0.042-0.05-0.064-0.078c-0.005-0.007-0.009-0.012-0.015-0.018c-0.016-0.019-0.031-0.037-0.047-0.056
		c-0.011-0.014-0.023-0.028-0.035-0.042c-0.012-0.014-0.024-0.03-0.036-0.045c-0.009-0.01-0.018-0.021-0.027-0.032
		c-0.017-0.021-0.034-0.041-0.05-0.062c-0.01-0.012-0.021-0.024-0.03-0.037c-0.018-0.02-0.033-0.039-0.05-0.06
		c-0.008-0.01-0.018-0.021-0.026-0.032c-0.017-0.02-0.035-0.043-0.053-0.064c0,0-0.017-0.02-0.025-0.031
		c-0.018-0.022-0.035-0.043-0.052-0.064c-0.008-0.011-0.018-0.022-0.026-0.033c-0.012-0.015-0.023-0.029-0.036-0.043
		c-0.015-0.018-0.03-0.036-0.044-0.054c-0.01-0.013-0.024-0.03-0.035-0.042c-0.01-0.013-0.021-0.025-0.031-0.038
		c-0.017-0.021-0.031-0.037-0.048-0.059c-0.009-0.011-0.019-0.023-0.028-0.035c-0.018-0.021-0.032-0.038-0.049-0.06
		c0,0-0.019-0.023-0.028-0.035c-0.016-0.02-0.033-0.041-0.049-0.06c-0.01-0.013-0.021-0.025-0.031-0.038
		c-0.012-0.015-0.025-0.031-0.036-0.046c-0.014-0.017-0.027-0.034-0.04-0.05c-0.01-0.013-0.021-0.027-0.032-0.039
		c-0.016-0.02-0.031-0.038-0.046-0.058c-0.01-0.012-0.021-0.026-0.031-0.038c-0.016-0.02-0.031-0.038-0.047-0.058
		c-0.01-0.013-0.021-0.026-0.031-0.038c-0.012-0.016-0.025-0.032-0.037-0.048c-0.012-0.015-0.027-0.034-0.039-0.049
		c-0.01-0.013-0.021-0.028-0.033-0.041c-0.013-0.017-0.031-0.039-0.044-0.056c-0.011-0.013-0.021-0.027-0.033-0.04
		c-0.013-0.017-0.025-0.032-0.038-0.05c-0.013-0.016-0.025-0.031-0.037-0.047c-0.01-0.013-0.021-0.025-0.03-0.038
		c-0.016-0.02-0.032-0.04-0.048-0.06c-0.01-0.013-0.019-0.023-0.028-0.036c-0.017-0.021-0.033-0.041-0.049-0.062
		c-0.008-0.01-0.019-0.024-0.027-0.035c-0.015-0.02-0.031-0.04-0.047-0.06c-0.01-0.013-0.019-0.023-0.029-0.036
		c-0.012-0.017-0.024-0.032-0.037-0.049c-0.011-0.015-0.026-0.033-0.037-0.048c-0.012-0.016-0.024-0.031-0.035-0.047
		c-0.012-0.015-0.024-0.03-0.036-0.045c-0.013-0.017-0.027-0.035-0.04-0.05c-0.009-0.013-0.017-0.022-0.027-0.036
		c-0.016-0.021-0.032-0.042-0.049-0.063c-0.009-0.013-0.018-0.023-0.027-0.036c-0.016-0.021-0.033-0.042-0.049-0.063
		c-0.008-0.01-0.019-0.023-0.026-0.035c-0.016-0.021-0.032-0.041-0.048-0.062c-0.008-0.011-0.02-0.025-0.028-0.035
		c-0.013-0.018-0.026-0.035-0.04-0.052c-0.011-0.015-0.021-0.027-0.032-0.042c-0.014-0.018-0.028-0.036-0.042-0.054
		c-0.009-0.013-0.018-0.023-0.028-0.036c-0.015-0.02-0.029-0.038-0.045-0.059c-0.008-0.01-0.015-0.02-0.015-0.02
		c-0.025-0.033-0.042-0.054-0.059-0.077c-0.008-0.011-0.016-0.021-0.024-0.032c-0.017-0.023-0.034-0.045-0.05-0.067
		c-0.008-0.01-0.016-0.02-0.016-0.02c-0.025-0.034-0.043-0.056-0.06-0.079c0,0-0.014-0.019-0.021-0.027
		c-0.017-0.022-0.035-0.045-0.051-0.067c-0.007-0.009-0.014-0.02-0.021-0.028c-0.016-0.021-0.031-0.041-0.047-0.062
		c0,0-0.014-0.02-0.022-0.03c-0.016-0.022-0.033-0.043-0.049-0.065c-0.008-0.011-0.012-0.017-0.021-0.027
		c-0.018-0.024-0.035-0.048-0.053-0.072c-0.007-0.008-0.013-0.017-0.02-0.025c-0.018-0.024-0.035-0.049-0.053-0.072
		c0,0-0.014-0.019-0.02-0.028c-0.018-0.023-0.036-0.047-0.053-0.071c-0.007-0.008-0.013-0.018-0.02-0.027
		c-0.018-0.023-0.035-0.046-0.051-0.068c-0.008-0.011-0.013-0.018-0.021-0.029c-0.016-0.021-0.032-0.043-0.048-0.064l-0.019-0.025
		c-0.017-0.023-0.035-0.048-0.052-0.071c-0.007-0.008-0.009-0.013-0.009-0.013c-0.025-0.034-0.043-0.059-0.062-0.083
		c-0.007-0.009-0.011-0.016-0.018-0.024c-0.018-0.024-0.036-0.049-0.054-0.074l-0.019-0.025c-0.019-0.025-0.036-0.05-0.055-0.076
		c-0.007-0.008-0.009-0.012-0.016-0.021c-0.019-0.026-0.037-0.052-0.057-0.079c-0.005-0.007-0.008-0.011-0.013-0.018
		c-0.019-0.026-0.037-0.051-0.056-0.078c0,0-0.008-0.011-0.011-0.015c-0.018-0.025-0.036-0.05-0.054-0.076l-0.015-0.02
		c-0.019-0.026-0.037-0.052-0.056-0.079c-0.007-0.008-0.009-0.012-0.016-0.021c-0.018-0.026-0.037-0.052-0.056-0.079
		c-0.005-0.006-0.009-0.014-0.009-0.014c-0.024-0.033-0.043-0.059-0.062-0.085c-0.007-0.008-0.008-0.012-0.008-0.012
		c-0.025-0.035-0.045-0.061-0.063-0.088c0,0-0.009-0.013-0.013-0.018c-0.019-0.027-0.038-0.054-0.058-0.081
		c-0.001-0.002-0.007-0.009-0.007-0.009c-0.021-0.029-0.04-0.056-0.059-0.082l-0.01-0.014c-0.02-0.028-0.04-0.057-0.06-0.085
		c-0.005-0.007-0.006-0.008-0.006-0.008c-0.024-0.034-0.043-0.06-0.063-0.087c0,0-0.01-0.014-0.015-0.021
		c-0.019-0.026-0.037-0.053-0.057-0.08c-0.005-0.006-0.007-0.01-0.007-0.01c-0.024-0.035-0.044-0.062-0.063-0.09
		c0,0-0.007-0.009-0.01-0.014c-0.021-0.029-0.041-0.059-0.062-0.088l-0.003-0.004c-0.021-0.03-0.042-0.06-0.063-0.09l-0.006-0.008
		c-0.021-0.03-0.041-0.059-0.063-0.089c-0.001-0.002-0.006-0.008-0.006-0.008c-0.021-0.031-0.042-0.06-0.062-0.089
		c-0.005-0.007-0.006-0.008-0.01-0.014c-0.02-0.029-0.04-0.058-0.06-0.087c-0.002-0.003-0.007-0.009-0.007-0.009
		c-0.022-0.032-0.042-0.061-0.063-0.091c-0.004-0.005-0.005-0.006-0.005-0.006c-0.023-0.035-0.045-0.065-0.065-0.095l-0.004-0.005
		c-0.021-0.032-0.043-0.064-0.064-0.094l-0.001-0.002c-0.021-0.031-0.044-0.063-0.065-0.094l-0.004-0.006
		c-0.021-0.031-0.042-0.061-0.063-0.092l-0.007-0.009c-0.02-0.031-0.042-0.062-0.063-0.092l-0.005-0.007
		c-0.021-0.031-0.042-0.062-0.064-0.093c-0.001-0.003-0.002-0.004-0.002-0.004c-0.068-0.1-0.135-0.198-0.2-0.295l-0.001-0.002
		c-0.022-0.032-0.043-0.064-0.064-0.095l-0.004-0.007c-0.021-0.031-0.042-0.062-0.063-0.093c-0.001-0.002-0.003-0.005-0.003-0.005
		c-0.022-0.034-0.043-0.064-0.064-0.095l-0.004-0.007c-0.087-0.131-0.174-0.262-0.261-0.393c-0.002-0.003-0.002-0.004-0.002-0.004
		c-0.023-0.035-0.044-0.066-0.065-0.099l-0.001-0.002c-0.022-0.032-0.044-0.066-0.065-0.098l-0.001-0.003
		c-0.088-0.133-0.175-0.266-0.262-0.4c-0.021-0.034-0.042-0.066-0.064-0.099c-0.002-0.003-0.001-0.001-0.002-0.004
		c-0.021-0.033-0.042-0.064-0.063-0.097l-0.002-0.004c-0.26-0.404-0.516-0.807-0.768-1.216c0,0,0.001,0.002-0.001,0
		c-0.084-0.136-0.168-0.272-0.251-0.408l13.055-8.003c4.418,7.207,10.026,13.525,16.67,18.779L191.277,224.644z M215.012,75.279
		l0.004-0.001c0.018-0.007,0.037-0.014,0.055-0.021c0.004-0.002,0.008-0.004,0.008-0.004c0.02-0.007,0.036-0.013,0.051-0.019
		c0.006-0.002,0.01-0.004,0.01-0.004c0.021-0.007,0.033-0.012,0.048-0.018c0.007-0.002,0.012-0.004,0.012-0.004
		c0.021-0.008,0.036-0.013,0.051-0.02c0.005-0.001,0.009-0.003,0.009-0.003c0.022-0.008,0.042-0.016,0.061-0.022l0.002-0.001
		c0.063-0.022,0.123-0.045,0.186-0.067l0.003-0.001c0.018-0.007,0.037-0.013,0.056-0.02c0,0,0.008-0.004,0.011-0.005
		c0.016-0.006,0.036-0.012,0.051-0.018c0,0,0.006-0.003,0.009-0.004c0.015-0.006,0.037-0.013,0.052-0.019
		c0,0,0.007-0.002,0.009-0.004c7.197-2.585,14.831-4.243,22.767-4.835h0.002c0.023-0.002,0.044-0.003,0.067-0.005h0.002
		c0.023-0.002,0.044-0.004,0.067-0.006h0.001c0.137-0.009,0.275-0.02,0.412-0.029h0.001c0.138-0.009,0.275-0.019,0.412-0.027
		c0.002,0,0.002,0,0.002,0c0.024-0.002,0.045-0.003,0.067-0.005h0.002c0.023-0.001,0.042-0.002,0.065-0.004h0.007
		c0.022-0.002,0.038-0.003,0.062-0.004l0.007-0.001c0.02-0.001,0.041-0.003,0.061-0.004c0,0,0.005,0,0.007,0
		c0.093-0.006,0.179-0.011,0.271-0.016c0.004-0.001,0.007-0.001,0.007-0.001c0.021-0.001,0.043-0.002,0.061-0.003
		c0.003-0.001,0.007-0.001,0.007-0.001c0.021-0.001,0.045-0.003,0.063-0.004c0.003,0,0.006,0,0.006,0
		c0.022-0.001,0.043-0.002,0.064-0.004h0.007c0.023-0.001,0.041-0.002,0.064-0.004c0.001,0,0.002,0,0.002,0
		c0.07-0.004,0.137-0.007,0.206-0.011c0,0,0.007,0,0.01,0c0.017-0.001,0.036-0.002,0.053-0.003c0.007,0,0.013-0.001,0.013-0.001
		c0.024-0.001,0.04-0.002,0.057-0.003c0,0,0.009,0,0.015-0.001c0.017,0,0.035-0.001,0.052-0.002l0.015-0.001
		c0.018-0.001,0.039-0.002,0.057-0.003l0.009-0.001c0.092-0.004,0.18-0.008,0.273-0.012h0.006c0.02-0.001,0.039-0.002,0.059-0.003
		l0.015-0.001c0.017-0.001,0.035-0.002,0.052-0.003h0.015c0.018-0.001,0.035-0.002,0.051-0.003c0.006,0,0.011,0,0.011,0
		c0.072-0.003,0.141-0.006,0.207-0.008l0.006-0.001c0.018,0,0.042-0.001,0.06-0.002l0.019-0.001
		c0.014-0.001,0.034-0.001,0.049-0.002c0.007,0,0.012,0,0.012,0c0.024-0.001,0.035-0.002,0.052-0.003c0.008,0,0.016,0,0.024-0.001
		c0.014,0,0.029-0.001,0.044-0.001l0.021-0.001c0.017-0.001,0.033-0.002,0.05-0.002c0,0,0.009-0.001,0.015-0.001
		c0.046-0.002,0.089-0.003,0.135-0.005h0.002c0.023-0.001,0.043-0.002,0.066-0.002l0.008-0.001c0.017,0,0.04-0.001,0.058-0.002
		h0.015c0.017-0.001,0.036-0.002,0.052-0.002c0,0,0.011-0.001,0.016-0.001c0.018,0,0.032-0.001,0.049-0.001l0.021-0.001
		c0.018-0.001,0.035-0.001,0.052-0.002c0.004,0,0.008,0,0.008,0c0.024-0.001,0.042-0.002,0.063-0.002l0.009-0.001
		c0.047-0.001,0.088-0.002,0.134-0.004c0.007,0,0.012,0,0.018,0c0.014-0.001,0.036-0.001,0.051-0.002h0.017
		c0.017-0.001,0.03-0.001,0.048-0.002c0.007,0,0.016,0,0.023,0c0.012-0.001,0.031-0.001,0.031-0.001
		c0.021-0.001,0.028-0.001,0.028-0.001c0.023-0.001,0.035-0.001,0.049-0.001l0.027-0.001c0.014,0,0.029-0.001,0.044-0.001
		c0.008,0,0.014-0.001,0.021-0.001c0.018,0,0.041-0.001,0.059-0.001l0.007-0.001c0.023,0,0.045-0.001,0.068-0.001
		c0.003,0,0.006,0,0.006,0c0.021-0.001,0.042-0.001,0.06-0.002h0.02c0.015-0.001,0.031-0.001,0.046-0.001
		c0.007-0.001,0.016-0.001,0.023-0.001c0.015,0,0.029-0.001,0.029-0.001c0.022,0,0.031,0,0.031,0
		c0.023-0.001,0.036-0.001,0.051-0.001l0.023-0.001c0.014,0,0.026,0,0.04-0.001c0.009,0,0.019,0,0.028,0
		c0.015-0.001,0.028-0.001,0.043-0.001l0.021-0.001c0.023,0,0.044,0,0.067-0.001c0,0,0,0,0.001,0c0.023,0,0.043-0.001,0.066-0.001
		h0.016c0.017-0.001,0.03-0.001,0.048-0.001c0.009,0,0.018,0,0.027-0.001c0.015,0,0.025,0,0.039,0c0.009,0,0.019-0.001,0.019-0.001
		c0.021,0,0.035,0,0.047,0c0,0,0.02-0.001,0.029-0.001c0,0,0.025,0,0.039,0c0.009,0,0.018-0.001,0.027-0.001
		c0.011,0,0.027,0,0.027,0c0.021,0,0.031,0,0.031,0c0.023-0.001,0.043-0.001,0.058-0.001c0.006,0,0.01,0,0.017,0
		c0.022-0.001,0.041-0.001,0.064-0.001l0.023-0.001c0.014,0,0.028,0,0.043,0c0.008,0,0.018,0,0.026,0
		c0.015,0,0.025-0.001,0.04-0.001c0.01,0,0.02,0,0.02,0c0.021,0,0.035,0,0.046,0c0,0,0.019-0.001,0.029-0.001c0,0,0.027,0,0.038,0
		c0.01,0,0.02,0,0.03,0c0.014,0,0.022,0,0.036-0.001c0.01,0,0.02,0,0.02,0c0.021,0,0.037,0,0.049,0c0,0,0.018,0,0.026,0
		c0.023,0,0.042-0.001,0.065-0.001h0.015c0.014,0,0.036,0,0.05,0c0.008,0,0.016,0,0.024,0c0.014,0,0.029,0,0.043,0h0.024
		c0.015-0.001,0.027-0.001,0.042-0.001c0.009,0,0.018,0,0.026,0h0.041c0.009,0,0.017,0,0.025,0c0.015,0,0.027,0,0.041,0h0.027
		c0.014,0,0.028,0,0.042,0c0.008,0,0.016,0,0.024,0c0.023,0,0.042,0,0.065,0v15.313c-8.5,0-16.81,1.475-24.697,4.385l-5.3-14.367
		C215.003,75.282,215.01,75.28,215.012,75.279z M246.402,243.286c-0.002,0-0.003,0-0.003,0c-0.069,0.001-0.133,0.002-0.2,0.003
		l-0.02,0.001c-0.061,0.001-0.118,0.001-0.179,0.002c0,0-0.025,0-0.037,0c-0.018,0.001-0.031,0.001-0.048,0.001
		c-0.025,0-0.05,0.001-0.075,0.001c-0.014,0-0.027,0-0.042,0c-0.016,0-0.033,0.001-0.049,0.001c-0.015,0-0.025,0-0.04,0
		c-0.026,0-0.053,0-0.079,0.001c-0.012,0-0.019,0-0.031,0c-0.021,0-0.042,0-0.063,0c-0.009,0-0.023,0-0.032,0.001
		c-0.029,0-0.057,0-0.086,0h-0.02c-0.024,0-0.049,0-0.073,0l-0.027,0.001c-0.03,0-0.06,0-0.089,0c-0.004,0-0.009,0-0.009,0
		c-0.031,0-0.058,0-0.085,0c-0.006,0-0.018,0-0.018,0c-0.036,0-0.067,0-0.098,0c-0.033,0-0.065,0-0.098,0c-0.008,0-0.013,0-0.021,0
		c-0.032,0-0.064,0-0.096,0h-0.015c-0.028,0-0.057,0-0.086-0.001c0,0-0.012,0-0.021,0c-0.032,0-0.063,0-0.095,0
		c-0.008,0-0.01,0-0.01,0c-0.038,0-0.068,0-0.098-0.001c-0.003,0-0.008,0-0.008,0c-0.036,0-0.067,0-0.1,0
		c-0.008-0.001-0.012-0.001-0.021-0.001c-0.031,0-0.063,0-0.094,0h-0.004c-0.033-0.001-0.065-0.001-0.097-0.001
		c0,0-0.014-0.001-0.022-0.001c-0.033,0-0.064,0-0.097-0.001c-0.003,0-0.007,0-0.007,0c-0.033,0-0.064-0.001-0.093-0.001h-0.019
		c-0.032-0.001-0.064-0.001-0.096-0.002c-0.006,0-0.013,0-0.019,0c-0.028,0-0.057-0.001-0.086-0.001c-0.006,0-0.01,0-0.01,0
		c-0.038-0.001-0.07-0.002-0.102-0.002h-0.021c-0.03-0.001-0.061-0.002-0.091-0.002h-0.007c-0.032-0.001-0.064-0.001-0.096-0.002
		l-0.022-0.001c-0.032,0-0.064-0.001-0.095-0.001c-0.006-0.001-0.009-0.001-0.009-0.001c-0.034,0-0.063-0.001-0.091-0.002h-0.021
		c-0.032-0.001-0.064-0.002-0.095-0.002c0,0-0.011-0.001-0.018-0.001c-0.029,0-0.057-0.001-0.086-0.002c-0.006,0-0.01,0-0.01,0
		c-0.037-0.001-0.07-0.002-0.102-0.003h-0.02c-0.031-0.001-0.063-0.002-0.094-0.003h-0.005c-0.032-0.001-0.064-0.002-0.097-0.003
		h-0.022c-0.032-0.001-0.064-0.002-0.096-0.003c-0.003,0-0.003,0-0.003,0c-0.034-0.001-0.063-0.002-0.093-0.003l-0.024-0.001
		c-0.032-0.001-0.062-0.002-0.094-0.003c-0.006,0-0.012-0.001-0.018-0.001c-0.028-0.001-0.055-0.002-0.083-0.003h-0.021
		c-0.032-0.001-0.063-0.002-0.094-0.004h-0.021c-0.028-0.001-0.057-0.002-0.086-0.003l-0.012-0.001
		c-0.032-0.001-0.064-0.002-0.094-0.004h-0.023c-0.032-0.002-0.064-0.003-0.096-0.004c-0.003,0-0.003,0-0.003,0
		c-0.034-0.002-0.065-0.003-0.095-0.004l-0.021-0.001c-0.032-0.001-0.063-0.003-0.094-0.004c-0.006,0-0.013-0.001-0.019-0.001
		c-0.027-0.001-0.054-0.002-0.081-0.003l-0.021-0.001c-0.031-0.002-0.062-0.003-0.094-0.004c-0.008-0.001-0.014-0.001-0.022-0.001
		c-0.029-0.002-0.057-0.003-0.086-0.004c-0.003,0-0.009-0.001-0.009-0.001c-0.035-0.001-0.065-0.003-0.097-0.004
		c-0.009-0.001-0.016-0.001-0.024-0.002c-0.032-0.001-0.064-0.003-0.095-0.004h-0.003c-0.031-0.002-0.063-0.003-0.093-0.005
		c-0.008,0-0.014-0.001-0.022-0.001c-0.032-0.002-0.064-0.003-0.095-0.005l-0.013-0.001c-0.029-0.001-0.058-0.003-0.087-0.004
		c0,0-0.011-0.001-0.02-0.001c-0.033-0.002-0.064-0.004-0.096-0.005l-0.015-0.001c-0.03-0.002-0.06-0.003-0.089-0.005l-0.013-0.001
		c-0.032-0.002-0.063-0.003-0.095-0.005c-0.008-0.001-0.013-0.001-0.023-0.001c-0.03-0.002-0.061-0.004-0.091-0.006h-0.007
		c-0.032-0.002-0.063-0.004-0.094-0.006c-0.009,0-0.013-0.001-0.021-0.001c-0.032-0.002-0.064-0.004-0.096-0.006
		c0,0-0.009,0-0.012-0.001c-0.028-0.001-0.057-0.003-0.084-0.005c-0.008,0-0.015-0.001-0.023-0.001
		c-0.03-0.002-0.061-0.004-0.091-0.006l-0.024-0.002c-0.027-0.001-0.054-0.003-0.081-0.005c-0.006,0-0.01,0-0.017-0.001
		c-0.031-0.002-0.063-0.004-0.093-0.006l-0.023-0.002c-0.031-0.002-0.063-0.004-0.094-0.006c-0.033-0.002-0.064-0.004-0.096-0.007
		l-0.023-0.001c-0.031-0.002-0.063-0.004-0.093-0.007c-0.007,0-0.007,0-0.007,0c-0.036-0.003-0.064-0.005-0.092-0.007l-0.021-0.001
		c-0.031-0.002-0.063-0.005-0.094-0.007c-0.008-0.001-0.012-0.001-0.021-0.001c-0.027-0.002-0.053-0.004-0.08-0.006l-0.02-0.002
		c-0.031-0.002-0.061-0.004-0.092-0.006c-0.008,0-0.016-0.001-0.025-0.002c-0.028-0.002-0.057-0.004-0.085-0.006l-0.01-0.001
		c-0.032-0.002-0.063-0.005-0.094-0.006c0,0-0.017-0.002-0.022-0.002c-0.032-0.003-0.063-0.005-0.094-0.007l-0.01-0.001
		c-0.03-0.003-0.059-0.005-0.089-0.007c-0.006-0.001-0.013-0.001-0.013-0.001c-0.037-0.004-0.068-0.006-0.1-0.008
		c0,0-0.014-0.001-0.02-0.001c-0.027-0.003-0.054-0.005-0.081-0.007c-0.006-0.001-0.013-0.001-0.019-0.002
		c-0.031-0.002-0.062-0.005-0.092-0.007c-0.008-0.001-0.018-0.002-0.018-0.002c-0.036-0.003-0.064-0.005-0.092-0.008
		c-0.006,0-0.006,0-0.006,0c-0.036-0.003-0.069-0.006-0.1-0.008c-0.006,0-0.017-0.001-0.022-0.002
		c-0.031-0.003-0.063-0.005-0.094-0.008c0,0-0.006-0.001-0.008-0.001c-0.03-0.003-0.058-0.005-0.087-0.007
		c-0.009-0.001-0.016-0.001-0.024-0.002c-0.031-0.003-0.062-0.006-0.092-0.007l-0.016-0.002c-0.027-0.002-0.055-0.005-0.082-0.007
		c-0.008-0.001-0.013-0.002-0.021-0.002c-0.031-0.003-0.062-0.006-0.094-0.008l-0.018-0.002c-0.028-0.003-0.058-0.005-0.087-0.007
		l-0.013-0.001c-0.031-0.003-0.062-0.006-0.093-0.008c0,0-0.014-0.002-0.022-0.003c-0.031-0.003-0.063-0.006-0.094-0.008
		c0,0-0.003,0-0.006,0c-0.03-0.003-0.06-0.006-0.091-0.008c-0.008-0.001-0.013-0.002-0.021-0.003
		c-0.031-0.003-0.062-0.006-0.093-0.008l-0.017-0.002c-0.028-0.002-0.055-0.005-0.083-0.007c-0.008-0.001-0.011-0.001-0.02-0.002
		c-0.031-0.003-0.062-0.006-0.093-0.009l-0.02-0.002c-0.028-0.003-0.056-0.006-0.084-0.007c0,0-0.011-0.002-0.014-0.002
		c-0.031-0.003-0.061-0.006-0.092-0.009l-0.025-0.002c-0.031-0.004-0.063-0.007-0.094-0.009c-0.032-0.004-0.064-0.007-0.096-0.01
		c0,0-0.012-0.001-0.021-0.002c-0.031-0.003-0.063-0.007-0.094-0.009l-0.011-0.002c-0.029-0.003-0.057-0.006-0.086-0.008
		c-0.007-0.001-0.014-0.002-0.02-0.002c-0.032-0.004-0.063-0.007-0.094-0.01l-0.016-0.002c-0.029-0.003-0.058-0.006-0.087-0.009
		l-0.014-0.001c-0.032-0.004-0.063-0.007-0.094-0.01c0,0-0.011-0.001-0.02-0.002c-0.03-0.004-0.061-0.007-0.091-0.01l-0.007-0.001
		c-0.031-0.003-0.063-0.007-0.094-0.01c-0.008-0.001-0.012-0.001-0.021-0.002c-0.031-0.004-0.063-0.008-0.093-0.011l-0.013-0.001
		c-0.027-0.003-0.057-0.007-0.085-0.009c-0.006-0.001-0.014-0.002-0.02-0.003c-0.031-0.003-0.063-0.007-0.094-0.01
		c0,0-0.012-0.002-0.018-0.002c-0.027-0.004-0.054-0.007-0.081-0.009c-0.006-0.001-0.013-0.002-0.013-0.002
		c-0.036-0.004-0.066-0.007-0.096-0.011c-0.008-0.001-0.016-0.002-0.024-0.003c-0.029-0.004-0.057-0.007-0.086-0.01
		c0,0-0.006,0-0.009-0.001c-0.03-0.004-0.06-0.007-0.09-0.01c-0.008-0.001-0.02-0.003-0.028-0.004
		c-0.03-0.004-0.06-0.008-0.091-0.011l-0.009-0.001c-0.029-0.003-0.057-0.007-0.085-0.01l-0.023-0.003
		c-0.03-0.004-0.061-0.007-0.091-0.011c-0.006-0.001-0.014-0.002-0.02-0.002c-0.026-0.004-0.052-0.007-0.078-0.01l-0.021-0.003
		c-0.031-0.004-0.06-0.007-0.09-0.011c-0.008-0.001-0.016-0.002-0.024-0.003c-0.028-0.004-0.058-0.007-0.086-0.011l-0.007-0.001
		c-0.031-0.004-0.062-0.008-0.092-0.011l-0.025-0.004c-0.029-0.004-0.059-0.008-0.089-0.011c-0.006-0.001-0.014-0.002-0.014-0.002
		c-0.031-0.004-0.056-0.007-0.082-0.01c-0.008-0.001-0.016-0.003-0.016-0.003c-0.038-0.005-0.067-0.008-0.097-0.012l-0.023-0.004
		c-0.025-0.003-0.051-0.007-0.076-0.009c-0.008-0.001-0.013-0.002-0.021-0.003c-0.029-0.004-0.059-0.008-0.088-0.012
		c-0.011-0.002-0.016-0.002-0.016-0.002c-0.037-0.006-0.062-0.008-0.088-0.012c-0.006-0.001-0.012-0.002-0.012-0.002
		c-0.035-0.005-0.065-0.008-0.094-0.013c-0.008-0.001-0.019-0.002-0.027-0.003c-0.029-0.005-0.059-0.008-0.089-0.013
		c0,0-0.007-0.001-0.013-0.002c-0.027-0.004-0.053-0.007-0.08-0.01c0,0-0.018-0.003-0.026-0.004
		c-0.029-0.005-0.06-0.008-0.089-0.013c-0.006-0.001-0.014-0.002-0.02-0.003c-0.026-0.004-0.051-0.007-0.078-0.01
		c-0.008-0.002-0.015-0.003-0.015-0.003c-0.038-0.005-0.067-0.009-0.096-0.013c-0.008-0.002-0.017-0.003-0.025-0.004
		c-0.025-0.004-0.051-0.007-0.076-0.011c-0.008-0.001-0.01-0.002-0.019-0.003c-0.03-0.004-0.06-0.008-0.089-0.013l-0.025-0.004
		c-0.03-0.004-0.058-0.008-0.087-0.012l-0.015-0.003c-0.027-0.004-0.054-0.007-0.081-0.011c-0.008-0.002-0.02-0.003-0.02-0.003
		c-0.037-0.006-0.066-0.01-0.094-0.015l-0.023-0.003c-0.024-0.004-0.048-0.008-0.072-0.011c0,0-0.018-0.003-0.026-0.004
		c-0.029-0.005-0.058-0.008-0.087-0.013c-0.008-0.001-0.017-0.003-0.025-0.004c-0.024-0.004-0.049-0.008-0.074-0.011l-0.023-0.004
		c-0.028-0.005-0.056-0.008-0.084-0.013c0,0-0.022-0.003-0.033-0.005c-0.024-0.004-0.049-0.007-0.073-0.011l-0.028-0.005
		c-0.024-0.004-0.049-0.008-0.073-0.011c-0.011-0.002-0.023-0.004-0.023-0.004c-0.038-0.007-0.066-0.01-0.092-0.015
		c0,0-0.02-0.003-0.028-0.005c-0.021-0.003-0.043-0.007-0.064-0.01c-0.011-0.002-0.023-0.004-0.034-0.005
		c-0.027-0.005-0.054-0.009-0.081-0.013c-0.011-0.002-0.021-0.004-0.033-0.006c-0.02-0.003-0.041-0.007-0.062-0.01
		c-0.01-0.002-0.02-0.003-0.031-0.005c-0.026-0.005-0.053-0.008-0.08-0.013c-0.014-0.002-0.021-0.004-0.035-0.006
		c-0.022-0.004-0.043-0.007-0.065-0.011c-0.014-0.002-0.022-0.004-0.036-0.006c-0.024-0.004-0.05-0.008-0.074-0.012
		c-0.011-0.002-0.019-0.003-0.019-0.003c-0.039-0.007-0.067-0.011-0.095-0.016c0,0-0.019-0.004-0.027-0.005
		c-0.021-0.004-0.043-0.008-0.064-0.011c-0.011-0.002-0.021-0.004-0.032-0.006c-0.027-0.004-0.054-0.008-0.081-0.013
		c-0.01-0.002-0.023-0.005-0.035-0.007c-0.02-0.003-0.04-0.007-0.06-0.01c-0.011-0.002-0.021-0.003-0.032-0.005
		c-0.027-0.005-0.054-0.009-0.08-0.014c-0.014-0.003-0.022-0.004-0.036-0.007c-0.021-0.003-0.042-0.007-0.063-0.01
		c-0.011-0.002-0.024-0.005-0.035-0.007c-0.024-0.004-0.049-0.008-0.072-0.012c-0.011-0.002-0.024-0.005-0.036-0.007
		c-0.024-0.005-0.049-0.008-0.074-0.013c-0.011-0.002-0.025-0.005-0.036-0.007c-0.02-0.003-0.041-0.007-0.062-0.01
		c0,0-0.023-0.005-0.035-0.007c-0.027-0.005-0.053-0.009-0.08-0.014c-0.008-0.002-0.024-0.005-0.024-0.005
		c-0.027-0.005-0.047-0.008-0.065-0.012c-0.014-0.002-0.022-0.004-0.022-0.004c-0.04-0.007-0.066-0.011-0.092-0.016
		c0,0-0.026-0.005-0.036-0.008c-0.02-0.003-0.039-0.006-0.059-0.01c-0.016-0.003-0.028-0.005-0.044-0.008
		c-0.022-0.004-0.044-0.008-0.066-0.012c-0.011-0.002-0.026-0.005-0.026-0.005c-0.034-0.006-0.056-0.01-0.079-0.014
		c-0.014-0.003-0.029-0.006-0.042-0.009c-0.02-0.003-0.039-0.006-0.058-0.01c-0.014-0.003-0.025-0.005-0.038-0.008
		c-0.026-0.005-0.051-0.009-0.077-0.014c-0.014-0.003-0.024-0.005-0.038-0.008c-0.018-0.003-0.034-0.007-0.051-0.009
		c-0.014-0.003-0.027-0.006-0.041-0.007c-0.024-0.005-0.049-0.009-0.073-0.014c-0.014-0.003-0.029-0.006-0.043-0.008
		c-0.017-0.003-0.033-0.007-0.049-0.009c-0.017-0.003-0.032-0.007-0.048-0.009c-0.022-0.004-0.043-0.009-0.065-0.012
		c0,0-0.028-0.006-0.042-0.008c-0.018-0.004-0.036-0.007-0.054-0.01c-0.019-0.004-0.038-0.007-0.058-0.011
		c-0.017-0.004-0.033-0.007-0.049-0.009c-0.014-0.003-0.031-0.007-0.044-0.009c-0.022-0.004-0.044-0.008-0.065-0.012
		c-0.017-0.004-0.033-0.007-0.05-0.01c-0.015-0.003-0.03-0.006-0.045-0.008c-0.017-0.004-0.026-0.006-0.043-0.008
		c-0.024-0.005-0.05-0.01-0.074-0.015c-0.014-0.003-0.029-0.006-0.043-0.008c-0.015-0.003-0.029-0.006-0.044-0.008
		c-0.021-0.005-0.043-0.009-0.064-0.013c-0.017-0.004-0.035-0.007-0.051-0.01c-0.014-0.003-0.031-0.007-0.044-0.009
		c-0.016-0.003-0.032-0.007-0.048-0.009c-0.022-0.005-0.044-0.009-0.065-0.013c-0.016-0.004-0.032-0.007-0.047-0.01
		c-0.014-0.003-0.029-0.006-0.043-0.008c-0.019-0.004-0.039-0.008-0.058-0.012c-0.02-0.004-0.039-0.008-0.059-0.012
		c-0.014-0.003-0.029-0.006-0.044-0.008c-0.016-0.004-0.028-0.006-0.044-0.009c-0.023-0.005-0.048-0.01-0.07-0.015
		c-0.017-0.003-0.032-0.007-0.049-0.009c-0.012-0.003-0.024-0.006-0.037-0.008c-0.031-0.006-0.058-0.012-0.088-0.018
		c-0.009-0.002-0.018-0.004-0.018-0.004c-0.028-0.007-0.044-0.009-0.063-0.013c0,0-0.021-0.005-0.032-0.008
		c-0.027-0.006-0.061-0.012-0.089-0.019c-0.009-0.002-0.019-0.004-0.019-0.004c-0.029-0.007-0.045-0.009-0.064-0.014
		c0,0-0.018-0.004-0.027-0.006c-0.03-0.007-0.062-0.013-0.092-0.02l-0.027-0.006c-0.058-0.012-0.114-0.025-0.172-0.037
		c0,0-0.021-0.005-0.033-0.007c-0.035-0.008-0.067-0.015-0.103-0.023l-0.012-0.003c-0.02-0.004-0.04-0.008-0.059-0.012
		c-0.007-0.002-0.011-0.003-0.018-0.004c-0.038-0.008-0.07-0.016-0.108-0.024c-0.005-0.001-0.01-0.003-0.01-0.003
		c-0.027-0.006-0.042-0.009-0.064-0.014c-0.006-0.001-0.009-0.002-0.009-0.002c-0.041-0.009-0.077-0.017-0.112-0.025
		c-0.007-0.001-0.014-0.003-0.021-0.005c-0.061-0.013-0.121-0.027-0.181-0.041c-0.005-0.001-0.01-0.002-0.01-0.002
		c-0.068-0.016-0.128-0.029-0.191-0.044l-0.009-0.002c-0.04-0.009-0.08-0.019-0.122-0.028l-0.005-0.001
		c-0.065-0.015-0.129-0.03-0.194-0.045l-0.001-0.001c-0.065-0.015-0.13-0.03-0.195-0.045l-0.002-0.001
		c-2.341-0.552-4.646-1.199-6.91-1.936l4.744-14.559c7.116,2.319,14.563,3.495,22.133,3.495c0.914,0,1.823-0.017,2.729-0.051
		l0.574,15.301C247.671,243.259,247.036,243.276,246.402,243.286z M268.72,73.236c9.972,2.832,19.215,7.406,27.374,13.369
		l-9.037,12.362c-6.838-4.998-14.414-8.699-22.52-11L268.72,73.236z M303.734,220.363c-0.026,0.024-0.051,0.048-0.078,0.072
		l-0.007,0.006c-0.027,0.024-0.054,0.049-0.08,0.074l-0.004,0.003c-0.026,0.024-0.053,0.049-0.08,0.074c0,0-0.006,0.006-0.01,0.009
		c-0.024,0.022-0.05,0.046-0.075,0.069l-0.016,0.014c-0.024,0.022-0.05,0.046-0.075,0.068l-0.013,0.012
		c-0.025,0.023-0.051,0.045-0.076,0.068c0,0-0.009,0.008-0.016,0.014c-0.024,0.022-0.049,0.045-0.074,0.067
		c-0.006,0.006-0.008,0.007-0.015,0.013c-0.022,0.02-0.044,0.04-0.065,0.06l-0.022,0.02c-0.022,0.02-0.045,0.04-0.067,0.06
		c-0.007,0.006-0.012,0.011-0.012,0.011c-0.03,0.027-0.052,0.048-0.077,0.069c-0.007,0.006-0.015,0.013-0.021,0.019
		c-0.023,0.021-0.047,0.041-0.069,0.062c-0.008,0.007-0.014,0.012-0.022,0.02c-0.022,0.021-0.046,0.041-0.068,0.062
		c-0.008,0.007-0.015,0.013-0.023,0.02c-0.022,0.021-0.045,0.041-0.068,0.062c-0.007,0.006-0.013,0.012-0.02,0.017
		c-0.021,0.019-0.041,0.037-0.063,0.056c0,0-0.012,0.01-0.02,0.018c-0.022,0.02-0.045,0.039-0.066,0.059
		c-0.008,0.007-0.016,0.014-0.024,0.021c-0.022,0.02-0.043,0.038-0.064,0.057c-0.01,0.009-0.02,0.017-0.03,0.026
		c-0.022,0.019-0.042,0.036-0.064,0.056c-0.01,0.008-0.018,0.016-0.028,0.024c-0.021,0.019-0.042,0.037-0.064,0.056
		c-0.01,0.009-0.017,0.015-0.027,0.023c-0.02,0.018-0.04,0.035-0.061,0.053c0,0-0.021,0.019-0.029,0.025
		c-0.018,0.016-0.036,0.033-0.055,0.049c-0.012,0.01-0.02,0.018-0.02,0.018c-0.031,0.027-0.051,0.045-0.07,0.062
		c-0.01,0.009-0.016,0.014-0.026,0.022c-0.022,0.02-0.044,0.038-0.065,0.057c-0.01,0.009-0.017,0.015-0.027,0.023
		c-0.022,0.02-0.044,0.038-0.066,0.057c-0.01,0.009-0.017,0.015-0.027,0.024c-0.021,0.018-0.042,0.036-0.064,0.054
		c-0.01,0.009-0.021,0.018-0.031,0.027c-0.018,0.015-0.035,0.03-0.052,0.046c-0.013,0.01-0.026,0.022-0.038,0.032
		c-0.016,0.014-0.032,0.028-0.048,0.042c-0.012,0.01-0.03,0.025-0.042,0.036c-0.016,0.014-0.034,0.029-0.049,0.043
		c-0.012,0.01-0.021,0.017-0.033,0.027c-0.02,0.018-0.038,0.034-0.059,0.05c-0.012,0.01-0.024,0.021-0.036,0.032
		c-0.02,0.017-0.039,0.033-0.058,0.05c-0.01,0.008-0.025,0.021-0.036,0.03c-0.016,0.014-0.034,0.029-0.05,0.043
		c-0.014,0.012-0.029,0.024-0.043,0.036c-0.015,0.013-0.03,0.025-0.044,0.037c-0.015,0.012-0.035,0.029-0.049,0.041
		c-0.014,0.011-0.027,0.023-0.041,0.035c-0.019,0.016-0.036,0.031-0.055,0.047c-0.013,0.01-0.024,0.021-0.037,0.031
		c-0.014,0.012-0.032,0.027-0.047,0.04c-0.016,0.013-0.032,0.026-0.048,0.04c-0.012,0.01-0.027,0.022-0.027,0.022
		c-0.032,0.026-0.05,0.041-0.068,0.057c-0.014,0.012-0.025,0.02-0.039,0.033c0,0-0.028,0.024-0.042,0.035
		c-0.019,0.016-0.034,0.028-0.052,0.044c-0.013,0.01-0.025,0.021-0.037,0.031c-0.019,0.016-0.037,0.031-0.056,0.047
		c-0.012,0.01-0.024,0.021-0.037,0.031c-0.017,0.014-0.037,0.031-0.054,0.045c-0.013,0.011-0.026,0.022-0.04,0.034
		c-0.013,0.01-0.026,0.022-0.038,0.032c-0.02,0.016-0.037,0.031-0.057,0.047c-0.012,0.01-0.026,0.021-0.038,0.032
		c-0.019,0.016-0.038,0.033-0.058,0.048c-0.012,0.01-0.025,0.021-0.025,0.021c-0.027,0.022-0.041,0.035-0.056,0.047
		c-0.019,0.016-0.033,0.027-0.051,0.042c-0.013,0.011-0.026,0.021-0.039,0.032c-0.019,0.016-0.038,0.032-0.057,0.048
		c-0.012,0.009-0.023,0.019-0.035,0.028c-0.021,0.018-0.036,0.031-0.058,0.048c-0.013,0.011-0.025,0.021-0.038,0.032
		c0,0-0.028,0.022-0.04,0.033c-0.019,0.015-0.036,0.029-0.055,0.044c-0.012,0.01-0.029,0.024-0.041,0.035
		c-0.019,0.015-0.036,0.029-0.055,0.044c-0.015,0.012-0.027,0.022-0.042,0.035c-0.01,0.008-0.021,0.017-0.032,0.025
		c-0.021,0.017-0.044,0.036-0.065,0.053c-0.01,0.008-0.021,0.017-0.031,0.024c-0.021,0.018-0.042,0.035-0.064,0.051
		c-0.01,0.008-0.021,0.017-0.032,0.026c-0.022,0.017-0.045,0.035-0.065,0.052c-0.01,0.008-0.021,0.016-0.031,0.024
		c-0.019,0.015-0.036,0.03-0.056,0.045c-0.013,0.011-0.026,0.022-0.04,0.033c-0.015,0.011-0.03,0.023-0.045,0.036
		c-0.014,0.011-0.028,0.022-0.042,0.034c-0.02,0.015-0.035,0.028-0.054,0.043c-0.011,0.008-0.022,0.018-0.034,0.026
		c-0.021,0.017-0.044,0.036-0.065,0.052c-0.009,0.007-0.019,0.015-0.029,0.023c-0.021,0.017-0.046,0.036-0.067,0.053
		c-0.009,0.008-0.02,0.015-0.029,0.023c-0.023,0.018-0.046,0.036-0.069,0.054c-0.009,0.007-0.02,0.016-0.029,0.022
		c-0.017,0.014-0.032,0.025-0.049,0.039c-0.017,0.013-0.034,0.026-0.051,0.039c-0.013,0.009-0.03,0.023-0.043,0.034
		c-0.012,0.009-0.024,0.02-0.036,0.028c-0.022,0.017-0.041,0.033-0.063,0.049c-0.008,0.007-0.018,0.014-0.027,0.021
		c-0.023,0.019-0.049,0.038-0.072,0.057c-0.008,0.007-0.017,0.013-0.025,0.02c-0.023,0.018-0.049,0.037-0.072,0.056
		c-0.009,0.007-0.018,0.013-0.026,0.021c-0.024,0.018-0.049,0.037-0.072,0.056c-0.009,0.007-0.018,0.013-0.026,0.02
		c-0.049,0.038-0.097,0.076-0.147,0.113c-0.007,0.006-0.014,0.011-0.021,0.017c-0.026,0.02-0.052,0.04-0.078,0.06
		c0,0-0.017,0.013-0.025,0.02c-0.023,0.018-0.047,0.036-0.07,0.053c-0.01,0.008-0.021,0.017-0.021,0.017
		c-0.033,0.025-0.056,0.043-0.078,0.06c0,0-0.02,0.014-0.029,0.022c-0.022,0.016-0.049,0.036-0.07,0.053
		c-0.01,0.007-0.021,0.015-0.03,0.022c-0.015,0.011-0.03,0.023-0.046,0.035c-0.018,0.013-0.036,0.028-0.054,0.041
		c-0.015,0.011-0.029,0.022-0.044,0.034c-0.013,0.01-0.027,0.021-0.04,0.031c-0.021,0.016-0.037,0.028-0.059,0.044
		c-0.01,0.007-0.021,0.016-0.031,0.023c-0.023,0.018-0.045,0.034-0.069,0.052c-0.009,0.007-0.021,0.015-0.03,0.022
		c-0.02,0.015-0.045,0.035-0.065,0.049c0,0-0.024,0.019-0.036,0.027c-0.019,0.015-0.036,0.027-0.055,0.042
		c-0.015,0.011-0.03,0.021-0.03,0.021c-0.029,0.023-0.04,0.031-0.055,0.042c-0.02,0.014-0.038,0.029-0.058,0.043
		c-0.015,0.011-0.027,0.021-0.042,0.032c-0.015,0.011-0.031,0.022-0.046,0.034c-0.017,0.013-0.036,0.027-0.053,0.04
		c-0.012,0.008-0.025,0.019-0.037,0.027c-0.02,0.015-0.043,0.033-0.063,0.047c0,0-0.023,0.018-0.035,0.026
		c-0.02,0.014-0.045,0.033-0.064,0.047c-0.011,0.009-0.023,0.018-0.023,0.018c-0.033,0.024-0.054,0.04-0.076,0.056
		c-0.012,0.008-0.023,0.017-0.035,0.025c-0.016,0.011-0.03,0.021-0.045,0.033c-0.019,0.014-0.037,0.028-0.057,0.042
		c-0.015,0.011-0.027,0.02-0.042,0.031c-0.016,0.012-0.033,0.024-0.049,0.036c-0.018,0.013-0.033,0.024-0.05,0.037
		c-0.014,0.009-0.026,0.02-0.04,0.029c-0.02,0.014-0.039,0.028-0.059,0.043c-0.013,0.009-0.026,0.02-0.04,0.029
		c-0.02,0.015-0.037,0.027-0.056,0.041c-0.014,0.01-0.028,0.021-0.042,0.031c-0.015,0.011-0.034,0.024-0.049,0.036
		c-0.017,0.012-0.034,0.024-0.05,0.036c-0.016,0.011-0.028,0.02-0.043,0.031c-0.019,0.014-0.038,0.028-0.058,0.042
		c-0.015,0.01-0.027,0.019-0.042,0.03c-0.015,0.011-0.031,0.021-0.046,0.033c-0.018,0.013-0.037,0.027-0.055,0.039
		c-0.013,0.009-0.025,0.019-0.039,0.028c-0.02,0.015-0.039,0.029-0.059,0.043c-0.013,0.009-0.028,0.02-0.041,0.03
		c-0.021,0.014-0.036,0.026-0.057,0.04c-0.014,0.01-0.027,0.02-0.041,0.03c-0.016,0.01-0.033,0.023-0.049,0.034
		c-0.018,0.013-0.036,0.026-0.055,0.039c-0.013,0.009-0.025,0.019-0.039,0.028c-0.02,0.014-0.04,0.029-0.06,0.043
		c-0.016,0.011-0.026,0.019-0.042,0.029c-0.016,0.011-0.032,0.023-0.048,0.035c-0.018,0.012-0.035,0.025-0.053,0.037
		c-0.012,0.008-0.024,0.017-0.036,0.026c-0.022,0.015-0.044,0.031-0.066,0.046c-0.011,0.008-0.023,0.017-0.034,0.025
		c-0.021,0.014-0.039,0.027-0.059,0.041c-0.015,0.01-0.029,0.02-0.043,0.03c-0.014,0.009-0.028,0.02-0.042,0.029
		c-0.02,0.014-0.04,0.029-0.061,0.043c-0.013,0.009-0.026,0.018-0.039,0.027c-0.02,0.015-0.041,0.029-0.062,0.043
		c-0.013,0.009-0.027,0.02-0.041,0.029c-0.018,0.012-0.035,0.024-0.053,0.037c-0.015,0.011-0.029,0.02-0.045,0.032
		c-0.017,0.011-0.033,0.023-0.05,0.035c-0.016,0.011-0.035,0.024-0.051,0.035c-0.015,0.011-0.03,0.021-0.046,0.032
		c-0.018,0.012-0.035,0.025-0.053,0.037c-0.016,0.01-0.032,0.021-0.047,0.032c-0.014,0.009-0.027,0.019-0.041,0.028
		c-0.02,0.014-0.042,0.029-0.063,0.043c-0.013,0.009-0.023,0.017-0.037,0.026c-0.021,0.015-0.043,0.03-0.065,0.045
		c-0.011,0.008-0.024,0.017-0.035,0.024c-0.021,0.014-0.04,0.027-0.06,0.041c0,0-0.028,0.019-0.041,0.028
		c-0.017,0.011-0.034,0.023-0.05,0.034c-0.018,0.012-0.033,0.022-0.051,0.035c-0.016,0.011-0.033,0.022-0.049,0.033
		c-0.016,0.011-0.029,0.02-0.045,0.031c-0.019,0.013-0.038,0.026-0.057,0.038c0,0-0.024,0.017-0.036,0.024
		c-0.021,0.015-0.044,0.029-0.065,0.044c-0.014,0.009-0.025,0.017-0.038,0.026c-0.022,0.015-0.042,0.029-0.065,0.043
		c-0.013,0.009-0.024,0.017-0.038,0.026c-0.017,0.011-0.035,0.023-0.052,0.035c-0.016,0.011-0.034,0.023-0.049,0.034
		c-0.016,0.011-0.031,0.021-0.048,0.032c-0.018,0.012-0.033,0.022-0.051,0.035c-0.017,0.011-0.034,0.022-0.051,0.034
		c-0.016,0.011-0.027,0.019-0.043,0.029c-0.02,0.013-0.038,0.025-0.057,0.038c0,0-0.024,0.016-0.038,0.025
		c-0.022,0.015-0.044,0.029-0.066,0.044c-0.013,0.008-0.022,0.015-0.036,0.023c-0.022,0.015-0.045,0.03-0.067,0.045
		c-0.013,0.008-0.021,0.014-0.035,0.023c-0.022,0.014-0.044,0.028-0.065,0.042c0,0-0.024,0.017-0.036,0.024
		c-0.019,0.011-0.035,0.023-0.053,0.035c-0.016,0.01-0.032,0.021-0.048,0.031c-0.018,0.012-0.037,0.024-0.055,0.036
		c-0.012,0.007-0.021,0.013-0.032,0.021c-0.023,0.015-0.047,0.031-0.069,0.046c-0.012,0.007-0.024,0.015-0.036,0.022
		c-0.023,0.016-0.046,0.03-0.069,0.045c0,0-0.022,0.015-0.034,0.022c-0.022,0.015-0.046,0.03-0.069,0.045
		c-0.013,0.008-0.021,0.014-0.034,0.023c-0.021,0.013-0.04,0.026-0.061,0.039c-0.013,0.008-0.027,0.018-0.041,0.026
		c-0.018,0.012-0.036,0.024-0.055,0.035c-0.016,0.01-0.029,0.019-0.045,0.03c-0.019,0.011-0.037,0.023-0.056,0.035
		c-0.011,0.008-0.022,0.015-0.035,0.023c-0.022,0.014-0.046,0.029-0.069,0.044c-0.011,0.008-0.023,0.015-0.023,0.015
		c-0.035,0.023-0.057,0.036-0.08,0.051c-0.011,0.007-0.023,0.015-0.035,0.022c-0.023,0.015-0.047,0.029-0.069,0.044
		c0,0-0.023,0.015-0.035,0.022c-0.021,0.013-0.042,0.026-0.063,0.039c-0.013,0.008-0.024,0.016-0.038,0.024
		c-0.02,0.012-0.038,0.024-0.058,0.037c-0.014,0.008-0.026,0.016-0.039,0.024c-0.021,0.013-0.041,0.026-0.062,0.039
		c-0.011,0.007-0.021,0.013-0.034,0.021c-0.023,0.015-0.046,0.03-0.07,0.045c0,0-0.021,0.013-0.033,0.021
		c-0.024,0.015-0.048,0.03-0.072,0.045c-0.012,0.007-0.021,0.013-0.033,0.02c-0.023,0.015-0.049,0.03-0.072,0.045
		c-0.012,0.007-0.02,0.012-0.031,0.02c-0.022,0.014-0.045,0.028-0.067,0.041c-0.013,0.009-0.023,0.014-0.036,0.023
		c-0.021,0.012-0.04,0.024-0.061,0.037c-0.014,0.008-0.024,0.015-0.038,0.023c-0.022,0.014-0.043,0.027-0.065,0.04
		c-0.012,0.008-0.019,0.012-0.031,0.019c-0.023,0.015-0.048,0.03-0.072,0.045c-0.011,0.007-0.022,0.014-0.034,0.02
		c-0.024,0.015-0.049,0.03-0.073,0.046c-0.011,0.007-0.019,0.011-0.019,0.011c-0.036,0.022-0.062,0.037-0.086,0.052
		c-0.011,0.008-0.019,0.012-0.03,0.019c-0.024,0.015-0.047,0.029-0.071,0.044c-0.009,0.006-0.02,0.012-0.029,0.018
		c-0.023,0.013-0.044,0.026-0.066,0.039c-0.011,0.008-0.021,0.013-0.034,0.021c-0.023,0.015-0.048,0.029-0.071,0.044
		c-0.007,0.004-0.019,0.011-0.026,0.015c-0.025,0.016-0.051,0.032-0.077,0.048c-0.009,0.006-0.021,0.012-0.03,0.018
		c-0.025,0.015-0.051,0.031-0.076,0.046c-0.009,0.006-0.02,0.011-0.029,0.017c-0.025,0.016-0.05,0.031-0.076,0.046
		c-0.012,0.007-0.019,0.011-0.031,0.019c-0.022,0.013-0.045,0.027-0.067,0.04c-0.011,0.007-0.022,0.013-0.033,0.02
		c-0.022,0.013-0.045,0.026-0.067,0.039c-0.009,0.006-0.021,0.013-0.031,0.019c-0.023,0.015-0.048,0.029-0.072,0.043
		c-0.009,0.006-0.02,0.012-0.029,0.018c-0.025,0.015-0.05,0.03-0.075,0.044c-0.011,0.007-0.022,0.013-0.033,0.02
		c-0.025,0.015-0.05,0.03-0.074,0.044c0,0-0.022,0.013-0.031,0.019c-0.025,0.015-0.051,0.03-0.077,0.045c0,0-0.018,0.01-0.027,0.016
		c-0.023,0.014-0.046,0.027-0.069,0.041c-0.011,0.006-0.023,0.014-0.035,0.02c-0.022,0.012-0.043,0.025-0.064,0.037
		c-0.012,0.007-0.021,0.013-0.034,0.02c-0.023,0.014-0.048,0.028-0.071,0.042c-0.009,0.006-0.022,0.012-0.022,0.012
		c-0.034,0.02-0.059,0.035-0.083,0.049c-0.009,0.006-0.022,0.013-0.032,0.019c-0.025,0.014-0.049,0.029-0.075,0.043
		c-0.012,0.006-0.021,0.012-0.033,0.02c-0.023,0.013-0.049,0.027-0.072,0.041c-0.012,0.008-0.022,0.013-0.035,0.021
		c-0.022,0.012-0.042,0.024-0.063,0.036c-0.012,0.007-0.027,0.015-0.038,0.021c-0.022,0.013-0.044,0.025-0.065,0.038
		c-0.009,0.006-0.018,0.01-0.028,0.016c-0.026,0.015-0.052,0.03-0.079,0.045c-0.01,0.006-0.018,0.01-0.028,0.016
		c-0.025,0.015-0.05,0.03-0.076,0.044c0,0-0.023,0.013-0.033,0.019c-0.024,0.014-0.05,0.029-0.076,0.043c0,0-0.02,0.012-0.03,0.018
		c-0.026,0.015-0.051,0.029-0.078,0.044c-0.009,0.006-0.018,0.01-0.027,0.015c-0.024,0.014-0.049,0.028-0.073,0.042
		c-0.009,0.005-0.018,0.009-0.027,0.015c-0.023,0.013-0.047,0.026-0.07,0.039c0,0-0.021,0.012-0.03,0.017
		c-0.025,0.015-0.051,0.03-0.077,0.044c0,0-0.021,0.011-0.03,0.017c-0.026,0.014-0.051,0.029-0.078,0.043
		c0,0-0.02,0.011-0.029,0.017c-0.026,0.015-0.053,0.03-0.079,0.044c0,0-0.017,0.01-0.026,0.015
		c-0.027,0.015-0.054,0.031-0.081,0.046c0,0-0.016,0.009-0.026,0.014c-0.023,0.014-0.048,0.027-0.072,0.04
		c-0.009,0.006-0.02,0.011-0.029,0.017c-0.024,0.013-0.049,0.026-0.072,0.04c-0.01,0.005-0.018,0.009-0.028,0.015
		c-0.025,0.014-0.052,0.029-0.078,0.043c0,0-0.02,0.011-0.03,0.017c-0.025,0.014-0.051,0.028-0.077,0.042
		c0,0-0.022,0.013-0.032,0.018c-0.026,0.014-0.051,0.028-0.077,0.042c-0.01,0.006-0.021,0.011-0.03,0.017
		c-0.026,0.014-0.053,0.029-0.079,0.043c-0.009,0.006-0.016,0.009-0.026,0.014c-0.023,0.013-0.048,0.026-0.072,0.039
		c-0.009,0.006-0.019,0.011-0.019,0.011c-0.035,0.019-0.059,0.032-0.084,0.046c-0.009,0.005-0.016,0.008-0.025,0.013
		c-0.027,0.015-0.053,0.029-0.08,0.044c-0.009,0.005-0.021,0.011-0.03,0.016c-0.026,0.014-0.052,0.028-0.078,0.042
		c-0.009,0.006-0.021,0.012-0.031,0.017c-0.026,0.014-0.051,0.028-0.078,0.042c-0.009,0.005-0.022,0.011-0.022,0.011
		c-0.033,0.019-0.057,0.031-0.08,0.044c-0.012,0.007-0.024,0.013-0.036,0.019c-0.021,0.012-0.044,0.024-0.065,0.035
		c-0.012,0.007-0.026,0.014-0.037,0.021c-0.022,0.011-0.044,0.022-0.065,0.035c-0.012,0.007-0.022,0.011-0.022,0.011
		c-0.037,0.02-0.063,0.034-0.088,0.047c-0.011,0.006-0.022,0.012-0.034,0.018c-0.025,0.014-0.049,0.026-0.075,0.04
		c-0.012,0.006-0.023,0.012-0.035,0.019c-0.025,0.013-0.049,0.026-0.075,0.039c-0.01,0.006-0.023,0.012-0.033,0.018
		c-0.022,0.011-0.045,0.023-0.068,0.036c-0.014,0.007-0.026,0.014-0.041,0.021c-0.02,0.01-0.039,0.021-0.06,0.031
		c-0.017,0.009-0.028,0.015-0.045,0.024c-0.02,0.01-0.039,0.021-0.06,0.031c0,0-0.028,0.015-0.04,0.021
		c-0.023,0.012-0.046,0.023-0.069,0.035c-0.012,0.007-0.025,0.013-0.037,0.02c-0.024,0.013-0.049,0.025-0.073,0.038
		c-0.012,0.006-0.026,0.013-0.038,0.02c-0.024,0.012-0.049,0.025-0.073,0.037c-0.012,0.007-0.023,0.012-0.035,0.019
		c-0.021,0.01-0.041,0.021-0.063,0.032c-0.014,0.007-0.032,0.017-0.047,0.024c-0.02,0.01-0.039,0.02-0.058,0.03
		c-0.015,0.007-0.03,0.016-0.045,0.023c-0.022,0.011-0.042,0.021-0.064,0.033c0,0-0.024,0.012-0.036,0.018
		c-0.024,0.013-0.048,0.025-0.073,0.037c-0.012,0.007-0.025,0.013-0.037,0.02c-0.024,0.012-0.048,0.024-0.071,0.036
		c-0.013,0.006-0.029,0.014-0.029,0.014c-0.036,0.019-0.059,0.03-0.083,0.042c-0.012,0.007-0.026,0.013-0.038,0.02
		c-0.02,0.01-0.04,0.02-0.06,0.03c-0.017,0.008-0.031,0.016-0.049,0.024c-0.018,0.009-0.037,0.019-0.055,0.028
		c-0.018,0.009-0.035,0.019-0.053,0.027c-0.018,0.008-0.036,0.018-0.054,0.027c-0.014,0.007-0.031,0.015-0.045,0.022
		c-0.022,0.011-0.044,0.021-0.065,0.033c-0.015,0.007-0.029,0.015-0.044,0.021c-0.022,0.011-0.045,0.023-0.067,0.034
		c-0.012,0.006-0.032,0.016-0.044,0.022c-0.018,0.008-0.036,0.018-0.054,0.027c-0.02,0.009-0.04,0.02-0.06,0.029
		c-0.013,0.007-0.026,0.013-0.039,0.02c-0.025,0.012-0.049,0.024-0.074,0.036c-0.013,0.007-0.025,0.012-0.037,0.019
		c-0.027,0.013-0.048,0.023-0.075,0.036c-0.012,0.006-0.025,0.012-0.036,0.019c-0.02,0.009-0.046,0.022-0.065,0.032
		c-0.017,0.008-0.033,0.016-0.049,0.023c-0.017,0.008-0.032,0.016-0.049,0.024c-0.021,0.01-0.041,0.021-0.062,0.03
		c-0.018,0.008-0.035,0.017-0.051,0.025c-0.013,0.006-0.027,0.013-0.04,0.02c-0.025,0.012-0.047,0.022-0.071,0.035
		c0,0-0.025,0.012-0.038,0.019c-0.024,0.011-0.049,0.024-0.075,0.035c-0.012,0.007-0.024,0.012-0.037,0.019
		c-0.024,0.011-0.049,0.023-0.073,0.035c-0.013,0.006-0.024,0.011-0.037,0.018c-0.027,0.013-0.055,0.026-0.082,0.039
		c-0.009,0.005-0.021,0.009-0.03,0.014c-0.02,0.009-0.035,0.017-0.054,0.026c-0.008,0.005-0.018,0.008-0.018,0.008
		c-0.038,0.019-0.067,0.032-0.097,0.047c0,0-0.018,0.008-0.026,0.012c-0.03,0.014-0.057,0.027-0.087,0.041
		c-0.008,0.005-0.019,0.009-0.019,0.009c-0.04,0.019-0.068,0.032-0.1,0.048c-0.008,0.003-0.013,0.006-0.02,0.008
		c-0.033,0.016-0.066,0.032-0.099,0.047l-0.016,0.007c-0.096,0.046-0.196,0.092-0.293,0.137c-0.04,0.019-0.077,0.036-0.116,0.054
		l-0.008,0.004c-0.035,0.016-0.076,0.035-0.11,0.051l-0.008,0.003c-0.179,0.083-0.355,0.164-0.535,0.246h-0.001
		c-0.039,0.018-0.078,0.036-0.118,0.053c-0.001,0.001-0.002,0.001-0.002,0.001c-0.859,0.388-1.725,0.763-2.597,1.123l-5.847-14.153
		c7.793-3.219,14.904-7.766,21.136-13.512l10.381,11.256L303.734,220.363z M317.169,108.609c3.104,4.655,5.768,9.628,7.937,14.859
		c0.001,0.002,0,0.001,0.001,0.004c0.015,0.036,0.03,0.072,0.045,0.108l0.001,0.001c0.015,0.036,0.03,0.073,0.045,0.11
		c0.038,0.092,0.075,0.182,0.112,0.275l0.002,0.003c0.006,0.015,0.012,0.031,0.019,0.047l0.005,0.012
		c0.007,0.015,0.012,0.03,0.019,0.045c0,0,0.004,0.008,0.005,0.011c0.006,0.014,0.011,0.029,0.011,0.029
		c0.007,0.019,0.011,0.028,0.014,0.033c0,0,0.009,0.025,0.015,0.037c0.002,0.006,0.006,0.014,0.006,0.014
		c0.008,0.018,0.012,0.031,0.018,0.045l0.007,0.017c0.006,0.014,0.011,0.027,0.017,0.041c0,0,0.003,0.007,0.005,0.012
		c0.018,0.045,0.036,0.088,0.053,0.133c0.003,0.007,0.007,0.017,0.01,0.025c0,0,0.007,0.02,0.012,0.029c0,0,0.007,0.02,0.011,0.03
		l0.01,0.026c0.006,0.012,0.008,0.021,0.014,0.034l0.01,0.026c0.004,0.01,0.008,0.022,0.012,0.032
		c0.004,0.009,0.007,0.018,0.007,0.018c0.007,0.02,0.012,0.031,0.012,0.031c0.008,0.02,0.011,0.029,0.015,0.038
		c0.004,0.01,0.009,0.022,0.013,0.033c0.003,0.007,0.007,0.016,0.009,0.023c0.005,0.013,0.008,0.022,0.014,0.035
		c0.004,0.009,0.007,0.018,0.01,0.027c0.005,0.013,0.009,0.025,0.015,0.037c0.003,0.007,0.005,0.012,0.005,0.012
		c0.01,0.027,0.017,0.044,0.025,0.065v0.001c0.017,0.041,0.032,0.08,0.048,0.121c0,0,0.002,0.005,0.003,0.007
		c0.007,0.018,0.014,0.036,0.022,0.054l0.003,0.008c0.006,0.015,0.014,0.035,0.02,0.051l0.005,0.011
		c0.007,0.018,0.013,0.033,0.02,0.051l0.004,0.007c0.006,0.016,0.014,0.037,0.021,0.053c0,0,0.002,0.005,0.003,0.007
		c0.064,0.164,0.125,0.325,0.188,0.49l0.001,0.003c1.32,3.47,2.421,7.041,3.29,10.708l-14.898,3.535
		c-1.946-8.201-5.312-15.93-10.007-22.971L317.169,108.609z M329.836,174.464c-0.004,0.018-0.008,0.036-0.011,0.053
		c-0.001,0.003-0.002,0.009-0.002,0.009c-0.005,0.02-0.008,0.035-0.011,0.051l-0.002,0.01c-0.004,0.017-0.007,0.033-0.01,0.049
		l-0.004,0.016c-0.003,0.016-0.007,0.031-0.009,0.046c0,0-0.002,0.007-0.002,0.009c-0.016,0.075-0.032,0.15-0.049,0.223
		l-0.001,0.007c-0.003,0.015-0.007,0.03-0.009,0.045c0,0-0.003,0.013-0.005,0.019c-0.003,0.014-0.006,0.028-0.008,0.041
		c0,0-0.003,0.012-0.005,0.021c-0.003,0.013-0.006,0.026-0.008,0.039c-0.001,0.006-0.004,0.018-0.004,0.018
		c-0.004,0.019-0.007,0.032-0.009,0.045c-0.002,0.008-0.004,0.015-0.006,0.023c-0.003,0.012-0.006,0.024-0.006,0.024
		c-0.005,0.023-0.006,0.029-0.006,0.029c-0.006,0.022-0.007,0.034-0.01,0.046c0,0-0.006,0.024-0.007,0.035l-0.006,0.025
		c-0.005,0.022-0.009,0.04-0.014,0.062c-0.001,0.007-0.003,0.013-0.004,0.019c-0.004,0.017-0.007,0.028-0.01,0.045l-0.005,0.022
		c-0.004,0.014-0.006,0.026-0.009,0.039l-0.005,0.024c-0.004,0.013-0.007,0.027-0.009,0.041l-0.006,0.023
		c-0.002,0.011-0.006,0.028-0.008,0.038c0,0-0.004,0.017-0.006,0.026c0,0-0.007,0.028-0.008,0.038
		c-0.002,0.008-0.004,0.016-0.006,0.024c-0.003,0.013-0.007,0.029-0.009,0.043c-0.002,0.006-0.003,0.011-0.005,0.018
		c-0.004,0.016-0.007,0.036-0.011,0.051c0,0-0.002,0.008-0.003,0.011c-0.015,0.066-0.029,0.129-0.044,0.194l-0.001,0.002
		c-0.004,0.02-0.009,0.041-0.013,0.06c-0.001,0.005-0.003,0.009-0.003,0.009c-0.005,0.02-0.009,0.036-0.012,0.052
		c-0.001,0.007-0.003,0.012-0.004,0.019c-0.004,0.016-0.008,0.032-0.011,0.048c0,0-0.002,0.008-0.003,0.012
		c-0.005,0.02-0.008,0.037-0.013,0.057l-0.002,0.006c-1.615,6.95-4.065,13.574-7.241,19.771l-13.627-6.984
		c3.85-7.509,6.307-15.572,7.304-23.963l15.205,1.807C330.762,169.497,330.351,172,329.836,174.464z"/>
</g>
<g>
</g>
<g>
</g>
<g>
</g>
<g>
</g>
<g>
</g>
<g>
</g>
<g>
</g>
<g>
</g>
<g>
</g>
<g>
</g>
<g>
</g>
<g>
</g>
<g>
</g>
<g>
</g>
<g>
</g>
</svg>
