<?xml version="1.0" encoding="iso-8859-1"?>
<!-- Generator: Adobe Illustrator 19.0.0, SVG Export Plug-In . SVG Version: 6.00 Build 0)  -->
<svg version="1.1" id="Capa_1" xmlns="http://www.w3.org/2000/svg" xmlns:xlink="http://www.w3.org/1999/xlink" x="0px" y="0px"
	 viewBox="0 0 490 490" style="enable-background:new 0 0 490 490;" xml:space="preserve">
<g>
	<path d="M252.652,125.157c-4.336,0-7.383,0.377-9.047,0.765v29.022c1.919,0.51,4.457,0.632,7.651,0.632
		c11.706,0,18.834-5.72,18.834-15.786C270.089,130.246,263.471,125.157,252.652,125.157z"/>
	<path d="M245,0C157.687,0,86.905,70.782,86.905,158.095c0,14.64,1.999,28.811,5.724,42.266c1.491,5.388,3.252,10.663,5.283,15.804
		l4.794,10.893L245,490l142.481-263.316l4.321-9.818c2.149-5.363,4.011-10.87,5.57-16.505c3.724-13.455,5.724-27.626,5.724-42.266
		C403.095,70.782,332.313,0,245,0z M212.02,195.686c-5.477,2.04-16.175,4.833-27.626,4.833c-14.512,0-25.465-3.692-33.613-11.451
		c-7.639-7.262-12.095-18.591-11.973-31.573c0-27.117,19.357-44.566,47.748-44.566c10.565,0,18.846,2.162,22.793,4.08l-3.436,12.605
		c-4.712-2.04-10.443-3.692-19.478-3.692c-18.337,0-31.196,10.82-31.196,30.807c0,19.478,11.961,31.063,29.788,31.063
		c5.609,0,9.812-0.766,11.84-1.785v-21.385h-15.143v-12.35h30.298V195.686z M278.371,158.636
		c-6.241,6.242-16.042,9.169-27.116,9.169c-2.939,0-5.61-0.134-7.651-0.51v32.338h-15.531v-84.664
		c5.611-1.02,13.37-1.785,23.934-1.785c11.464,0,19.867,2.417,25.344,7.007c5.088,4.202,8.403,10.941,8.403,18.968
		C285.754,147.307,283.204,154.059,278.371,158.636z M318.602,200.907c-9.035,0-18.457-2.55-23.17-5.343l3.438-12.993
		c5.088,2.926,12.725,5.477,20.753,5.477c10.054,0,15.653-4.712,15.653-11.719c0-6.484-4.323-10.31-15.277-14.256
		c-14.122-5.088-23.169-12.604-23.169-24.954c0-14.001,11.718-24.7,30.297-24.7c9.302,0,16.175,2.04,20.632,4.335l-3.825,12.605
		c-3.048-1.664-9.035-4.08-17.049-4.08c-9.934,0-14.268,5.343-14.268,10.31c0,6.631,4.966,9.679,16.429,14.135
		c14.888,5.598,22.15,13.115,22.15,25.465C351.195,188.934,340.752,200.907,318.602,200.907z"/>
</g>
<g>
</g>
<g>
</g>
<g>
</g>
<g>
</g>
<g>
</g>
<g>
</g>
<g>
</g>
<g>
</g>
<g>
</g>
<g>
</g>
<g>
</g>
<g>
</g>
<g>
</g>
<g>
</g>
<g>
</g>
</svg>
