<?xml version="1.0" encoding="iso-8859-1"?>
<!-- Generator: Adobe Illustrator 19.0.0, SVG Export Plug-In . SVG Version: 6.00 Build 0)  -->
<svg version="1.1" id="Capa_1" xmlns="http://www.w3.org/2000/svg" xmlns:xlink="http://www.w3.org/1999/xlink" x="0px" y="0px"
	 viewBox="0 0 490 490" style="enable-background:new 0 0 490 490;" xml:space="preserve">
<g>
	<path d="M125.884,126.715c-26.432,0-47.942,21.51-47.942,47.942c0,26.433,21.509,47.942,47.942,47.942
		c26.432,0,47.942-21.509,47.942-47.942C173.825,148.224,152.316,126.715,125.884,126.715z"/>
	<path d="M125.886,49.913C56.361,49.913,0,106.275,0,175.799c0,11.658,1.591,22.942,4.557,33.655
		c1.187,4.291,2.59,8.491,4.207,12.585l3.817,8.674l113.305,209.374L239.34,230.415l3.44-7.817
		c1.711-4.271,3.194-8.656,4.435-13.143c2.966-10.713,4.558-21.997,4.558-33.655C251.773,106.275,195.412,49.913,125.886,49.913z
		 M125.884,238.11c-34.991,0-63.453-28.462-63.453-63.453s28.462-63.453,63.453-63.453s63.453,28.462,63.453,63.453
		S160.874,238.11,125.884,238.11z"/>
	<path d="M316.394,415.987c-6.832,2.545-20.177,6.029-34.461,6.029c-18.101,0-31.764-4.605-41.928-14.284
		c-9.528-9.058-15.087-23.191-14.936-39.384c0-33.824,24.145-55.591,59.56-55.591c13.178,0,23.509,2.696,28.432,5.09l-4.287,15.723
		c-5.877-2.545-13.027-4.605-24.297-4.605c-22.873,0-38.914,13.496-38.914,38.429c0,24.297,14.92,38.747,37.157,38.747
		c6.998,0,12.239-0.954,14.769-2.227V377.24h-18.889v-15.405h37.793V415.987z"/>
	<path d="M336.419,315.302c6.998-1.272,16.677-2.227,29.856-2.227c14.299,0,24.781,3.014,31.613,8.74
		c6.347,5.241,10.482,13.648,10.482,23.66c0,10.164-3.181,18.586-9.21,24.297c-7.786,7.786-20.01,11.436-33.824,11.436
		c-3.666,0-6.998-0.167-9.543-0.636v40.338h-19.374V315.302z M355.793,365.167c2.393,0.636,5.559,0.788,9.543,0.788
		c14.602,0,23.494-7.134,23.494-19.692c0-11.906-8.255-18.253-21.752-18.253c-5.408,0-9.21,0.47-11.285,0.954V365.167z"/>
	<path d="M424.729,399.628c6.347,3.651,15.875,6.832,25.887,6.832c12.542,0,19.525-5.877,19.525-14.617
		c0-8.089-5.392-12.86-19.056-17.783c-17.617-6.347-28.901-15.723-28.901-31.128c0-17.465,14.617-30.81,37.793-30.81
		c11.603,0,20.177,2.545,25.736,5.408l-4.771,15.723c-3.802-2.075-11.27-5.09-21.267-5.09c-12.391,0-17.798,6.665-17.798,12.86
		c0,8.271,6.195,12.073,20.495,17.632C480.942,365.637,490,375.013,490,390.418c0,17.147-13.027,32.082-40.656,32.082
		c-11.27,0-23.024-3.181-28.901-6.665L424.729,399.628z"/>
</g>
<g>
</g>
<g>
</g>
<g>
</g>
<g>
</g>
<g>
</g>
<g>
</g>
<g>
</g>
<g>
</g>
<g>
</g>
<g>
</g>
<g>
</g>
<g>
</g>
<g>
</g>
<g>
</g>
<g>
</g>
</svg>
