<?xml version="1.0" encoding="iso-8859-1"?>
<!-- Generator: Adobe Illustrator 19.0.0, SVG Export Plug-In . SVG Version: 6.00 Build 0)  -->
<svg version="1.1" id="Capa_1" xmlns="http://www.w3.org/2000/svg" xmlns:xlink="http://www.w3.org/1999/xlink" x="0px" y="0px"
	 viewBox="0 0 490 490" style="enable-background:new 0 0 490 490;" xml:space="preserve">
<g>
	<path d="M245,71.758c-46.82,0-84.907,38.087-84.907,84.907c0,46.82,38.087,84.907,84.907,84.907s84.907-38.087,84.907-84.907
		C329.907,109.845,291.82,71.758,245,71.758z"/>
	<path d="M245,0C157.687,0,86.905,70.782,86.905,158.095c0,14.64,1.999,28.811,5.723,42.266c1.491,5.388,3.252,10.663,5.283,15.804
		l4.794,10.893L245,490l142.481-263.316l4.321-9.818c2.149-5.363,4.011-10.87,5.57-16.505c3.724-13.455,5.724-27.626,5.724-42.266
		C403.095,70.782,332.313,0,245,0z M245,256.883c-55.254,0-100.219-44.965-100.219-100.219S189.746,56.445,245,56.445
		s100.219,44.965,100.219,100.219S300.254,256.883,245,256.883z"/>
</g>
<g>
</g>
<g>
</g>
<g>
</g>
<g>
</g>
<g>
</g>
<g>
</g>
<g>
</g>
<g>
</g>
<g>
</g>
<g>
</g>
<g>
</g>
<g>
</g>
<g>
</g>
<g>
</g>
<g>
</g>
</svg>
