<?xml version="1.0" encoding="iso-8859-1"?>
<!-- Generator: Adobe Illustrator 19.0.0, SVG Export Plug-In . SVG Version: 6.00 Build 0)  -->
<svg version="1.1" id="Capa_1" xmlns="http://www.w3.org/2000/svg" xmlns:xlink="http://www.w3.org/1999/xlink" x="0px" y="0px"
	 viewBox="0 0 490 490" style="enable-background:new 0 0 490 490;" xml:space="preserve">
<g>
	<path d="M245.004,53.16c-16.015,0-29.055,13.025-29.055,29.04s13.04,29.04,29.055,29.04c16.015,0,29.04-13.025,29.04-29.04
		S261.019,53.16,245.004,53.16z"/>
	<path d="M407.056,286.063c-16.015,0-29.055,13.025-29.055,29.04c0,16.015,13.039,29.04,29.055,29.04
		c16.015,0,29.04-13.025,29.04-29.04C436.096,299.087,423.071,286.063,407.056,286.063z"/>
	<path d="M82.951,286.063c-16.015,0-29.04,13.025-29.04,29.04c0,16.015,13.025,29.04,29.04,29.04c16.015,0,29.04-13.025,29.04-29.04
		C111.991,299.087,98.967,286.063,82.951,286.063z"/>
	<path d="M407.049,232.901c-11.774,0-22.966,2.468-33.111,6.891l-69.662-92.242l15.482-28.611l2.266-5.151
		c1.128-2.814,2.105-5.704,2.923-8.66c1.953-7.06,3.003-14.496,3.003-22.177C327.951,37.138,290.812,0,245,0
		s-82.951,37.138-82.951,82.95c0,7.682,1.049,15.117,3.002,22.177c0.783,2.826,1.708,5.594,2.773,8.292l2.515,5.716l15.382,28.424
		l-69.666,92.229c-10.143-4.421-21.333-6.888-33.105-6.888C37.138,232.901,0,270.04,0,315.852c0,7.682,1.049,15.117,3.003,22.176
		c0.782,2.827,1.707,5.596,2.772,8.292l2.515,5.716L82.951,490l74.758-138.16l2.267-5.152c1.127-2.813,2.105-5.704,2.923-8.66
		c1.954-7.059,3.003-14.495,3.003-22.176c0-28.507-14.384-53.649-36.285-68.581l64.125-84.893L245,257.098l51.258-94.729
		l64.121,84.906c-21.899,14.932-36.281,40.073-36.281,68.577c0,7.682,1.049,15.117,3.003,22.176
		c0.782,2.827,1.707,5.596,2.772,8.292l2.515,5.716L407.049,490l74.758-138.16l2.267-5.152c1.127-2.813,2.105-5.704,2.922-8.66
		c1.954-7.059,3.003-14.495,3.003-22.176C490,270.04,452.862,232.901,407.049,232.901z M82.951,359.455
		c-24.449,0-44.352-19.903-44.352-44.353c0-24.449,19.903-44.352,44.352-44.352c24.449,0,44.352,19.903,44.352,44.352
		C127.304,339.552,107.401,359.455,82.951,359.455z M245.004,126.552c-24.464,0-44.367-19.903-44.367-44.353
		c0-24.449,19.903-44.352,44.367-44.352c24.449,0,44.353,19.903,44.353,44.352C289.356,106.649,269.453,126.552,245.004,126.552z
		 M407.056,359.455c-24.464,0-44.367-19.903-44.367-44.353c0-24.449,19.903-44.352,44.367-44.352
		c24.449,0,44.352,19.903,44.352,44.352C451.408,339.552,431.505,359.455,407.056,359.455z"/>
</g>
<g>
</g>
<g>
</g>
<g>
</g>
<g>
</g>
<g>
</g>
<g>
</g>
<g>
</g>
<g>
</g>
<g>
</g>
<g>
</g>
<g>
</g>
<g>
</g>
<g>
</g>
<g>
</g>
<g>
</g>
</svg>
