<?xml version="1.0" encoding="iso-8859-1"?>
<!-- Generator: Adobe Illustrator 19.0.0, SVG Export Plug-In . SVG Version: 6.00 Build 0)  -->
<svg version="1.1" id="Capa_1" xmlns="http://www.w3.org/2000/svg" xmlns:xlink="http://www.w3.org/1999/xlink" x="0px" y="0px"
	 viewBox="0 0 490 490" style="enable-background:new 0 0 490 490;" xml:space="preserve">
<g>
	<path d="M245.005,89.348c-53.833,0-97.617,43.784-97.617,97.617c0,8.853,1.196,17.63,3.529,26.109
		c0.927,3.32,2.004,6.565,3.26,9.735l3.08,6.998l87.748,162.082l90.754-168.871c1.211-3.066,2.363-6.475,3.335-9.959
		c2.333-8.464,3.529-17.242,3.529-26.094C342.622,133.132,298.838,89.348,245.005,89.348z"/>
	<path d="M245,0C109.69,0,0,109.69,0,245s109.69,245,245,245s245-109.69,245-245S380.31,0,245,0z M353.837,217.171
		c-1.122,4.008-2.452,7.955-3.963,11.769l-3.006,6.804L245.005,424.069L140.045,228.715c-1.57-3.933-2.826-7.716-3.888-11.559
		c-2.707-9.81-4.082-19.963-4.082-30.191c0-62.267,50.663-112.93,112.93-112.93c62.267,0,112.93,50.663,112.93,112.93
		C357.934,197.193,356.559,207.347,353.837,217.171z"/>
</g>
<g>
</g>
<g>
</g>
<g>
</g>
<g>
</g>
<g>
</g>
<g>
</g>
<g>
</g>
<g>
</g>
<g>
</g>
<g>
</g>
<g>
</g>
<g>
</g>
<g>
</g>
<g>
</g>
<g>
</g>
</svg>
