<?xml version="1.0" encoding="iso-8859-1"?>
<!-- Generator: Adobe Illustrator 19.0.0, SVG Export Plug-In . SVG Version: 6.00 Build 0)  -->
<svg version="1.1" id="Capa_1" xmlns="http://www.w3.org/2000/svg" xmlns:xlink="http://www.w3.org/1999/xlink" x="0px" y="0px"
	 viewBox="0 0 490 490" style="enable-background:new 0 0 490 490;" xml:space="preserve">
<g>
	<path d="M218.024,176.732c0,10.796,4.995,18.169,14.744,18.169c12.382,0,24.225-15.806,26.857-31.343l4.74-27.111
		c-2.632-0.793-6.056-1.585-10.527-1.585C233.815,134.862,218.024,154.346,218.024,176.732z"/>
	<path d="M244.999,0C157.686,0,86.905,70.782,86.905,158.095c0,14.64,1.999,28.811,5.723,42.266
		c1.492,5.388,3.253,10.663,5.284,15.804l4.793,10.893L244.999,490l142.482-263.316l4.32-9.818c2.15-5.363,4.011-10.87,5.571-16.505
		c3.723-13.455,5.722-27.626,5.722-42.266C403.095,70.782,332.314,0,244.999,0z M282.011,212.8c-11.589,0-20.801-6.58-21.324-21.593
		h-0.793c-8.688,14.49-20.546,21.593-35.291,21.593c-16.329,0-29.234-12.636-29.234-33.705c0-32.39,24.763-61.878,62.147-61.878
		c11.589,0,23.178,2.632,30.027,6.056l-8.434,48.195c-3.155,17.645-0.793,25.795,7.118,25.795
		c12.367,0.538,26.857-15.537,26.857-45.818c0-36.337-22.386-62.925-63.194-62.925c-41.616,0-77.161,32.39-77.161,84.264
		c0,43.979,28.442,69.774,67.411,69.774c14.221,0,28.442-2.886,38.969-8.688l4.486,13.428
		c-15.283,7.372-29.503,10.004-47.672,10.004c-43.44,0-81.093-31.328-81.093-82.679c0-53.713,38.446-100.593,97.423-100.593
		c46.341,0,78.207,32.135,78.207,76.099C330.46,189.114,308.613,212.8,282.011,212.8z"/>
</g>
<g>
</g>
<g>
</g>
<g>
</g>
<g>
</g>
<g>
</g>
<g>
</g>
<g>
</g>
<g>
</g>
<g>
</g>
<g>
</g>
<g>
</g>
<g>
</g>
<g>
</g>
<g>
</g>
<g>
</g>
</svg>
