<?xml version="1.0" encoding="UTF-8" standalone="no"?>
<!-- Created with Inkscape (http://www.inkscape.org/) -->

<svg
   xmlns:dc="http://purl.org/dc/elements/1.1/"
   xmlns:cc="http://creativecommons.org/ns#"
   xmlns:rdf="http://www.w3.org/1999/02/22-rdf-syntax-ns#"
   xmlns:svg="http://www.w3.org/2000/svg"
   xmlns="http://www.w3.org/2000/svg"
   xmlns:sodipodi="http://sodipodi.sourceforge.net/DTD/sodipodi-0.dtd"
   xmlns:inkscape="http://www.inkscape.org/namespaces/inkscape"
   width="301.37024"
   height="301.4444"
   id="svg3073"
   version="1.1"
   inkscape:version="0.48.4 r9939"
   sodipodi:docname="New document 2">
  <defs
     id="defs3075" />
  <sodipodi:namedview
     id="base"
     pagecolor="#000000"
     bordercolor="#666666"
     borderopacity="1.0"
     inkscape:pageopacity="1"
     inkscape:pageshadow="2"
     inkscape:zoom="1.4"
     inkscape:cx="136.98634"
     inkscape:cy="84.415749"
     inkscape:document-units="px"
     inkscape:current-layer="layer1"
     showgrid="false"
     fit-margin-top="0"
     fit-margin-left="0"
     fit-margin-right="0"
     fit-margin-bottom="0"
     inkscape:window-width="2880"
     inkscape:window-height="1745"
     inkscape:window-x="-4"
     inkscape:window-y="32"
     inkscape:window-maximized="1" />
  <metadata
     id="metadata3078">
    <rdf:RDF>
      <cc:Work
         rdf:about="">
        <dc:format>image/svg+xml</dc:format>
        <dc:type
           rdf:resource="http://purl.org/dc/dcmitype/StillImage" />
        <dc:title></dc:title>
      </cc:Work>
    </rdf:RDF>
  </metadata>
  <g
     inkscape:label="Layer 1"
     inkscape:groupmode="layer"
     id="layer1"
     transform="translate(-229.31406,-364.49495)">
    <g
       transform="translate(9.9997779,-167.1428)"
       style="display:inline"
       id="hdg-wheel">
      <path
         inkscape:connector-curvature="0"
         transform="matrix(0.77922078,0,0,0.81081081,60.25974,214.23068)"
         style="fill:none;stroke:#ffffff;stroke-width:1.76131892;stroke-linecap:round;stroke-miterlimit:4;stroke-opacity:1"
         d="m 590,577.36218 c 0,102.17268 -86.18519,185 -192.5,185 -106.31481,0 -192.5,-82.82732 -192.5,-185 0,-102.17268 86.18519,-185 192.5,-185 106.31481,0 192.5,82.82732 192.5,185 l -7,0 m 6.24873,16.45712 -2.98745,-0.27402 m 0.72699,16.59233 -6.88193,-1.28024 m 3.12162,17.31944 -2.88594,-0.81935 m -2.34084,16.44235 -6.5289,-2.52458 m -0.11054,17.60167 -2.6875,-1.33317 m -5.29464,15.74465 -5.96424,-3.6644 m -3.27895,17.30162 -2.40594,-1.79205 m -8.00859,14.55733 -5.22423,-4.65912 m -6.26674,16.46491 -2.05688,-2.18385 m -10.41213,12.95167 -4.34304,-5.48981 m -9.00305,15.14936 -1.65363,-2.5031 m -12.4662,10.99177 -3.34891,-6.14694 m -11.43885,13.40991 -1.20764,-2.7462 m -14.13961,8.73721 -2.26904,-6.62204 m -13.52669,11.3046 -0.7316,-2.90942 m -15.39967,6.25846 -1.13711,-6.90702 m -15.21596,8.91051 -0.24216,-2.99021 m -16.22007,3.6506 0.003,-7 m -16.46447,6.32641 0.24457,-2.99001 m -16.59601,0.97323 1.14276,-6.90609 m -17.27127,3.54381 0.734,-2.90882 m -16.52586,-1.7868 2.27453,-6.62016 m -17.61679,0.6164 1.20992,-2.74519 m -15.99161,-4.53012 3.35404,-6.14414 m -17.46675,-2.35636 1.65573,-2.50172 m -14.99366,-7.16909 4.34768,-5.48613 m -16.80754,-5.2923 2.05876,-2.18209 m -13.53957,-9.63356 5.22825,-4.65461 m -15.63168,-8.11972 2.40751,-1.78994 m -11.63867,-11.85542 5.96748,-3.65911 m -13.93676,-10.75948 2.68869,-1.33076 m -9.3145,-13.75233 6.53119,-2.51865 m -11.74374,-13.10911 2.8867,-0.81671 m -6.63233,-15.22592 6.8831,-1.27394 m -9.12867,-15.04643 2.98771,-0.2713 m -3.72412,-16.18649 7,0.006 m -6.23387,-16.4627 2.98721,0.27674 m -0.71186,-16.59297 6.88076,1.28653 m -3.10578,-17.32229 2.8852,0.82199 m 2.35583,-16.44022 6.5266,2.5305 m 0.12645,-17.60159 2.6863,1.33558 m 5.30871,-15.73993 5.96098,3.66969 m 3.29421,-17.29876 2.40437,1.79415 m 8.02126,-14.55037 5.2202,4.66363 m 6.2809,-16.45955 2.05502,2.18561 m 10.42315,-12.94282 4.33839,5.49348 m 9.01585,-15.14177 1.65152,2.50449 m 12.47542,-10.98131 3.34376,6.14974 m 11.45006,-13.40037 1.20535,2.7472 m 14.14686,-8.72546 2.26356,6.62392 m 13.53605,-11.29342 0.7292,2.91003 m 15.40481,-6.24582 1.13147,6.90795 m 15.22322,-8.89815 0.23975,2.99041 m 16.22301,-3.6376 -0.008,6.99999 m 16.4695,-6.31321 -0.247,2.98981 m 16.59679,-0.95973 -1.14841,6.90515 m 17.27415,-3.52963 -0.7364,2.90821 m 16.52437,1.80046 -2.28002,6.61827 m 17.61728,-0.60176 -1.2122,2.74418 m 15.98782,4.54346 -3.35918,6.14133 m 17.46475,2.37101 -1.65783,2.50032 m 14.9876,7.18174 -4.35233,5.48244 m 16.80301,5.30658 -2.06062,2.18033 m 13.53128,9.64519 -5.23228,4.65008 m 15.62459,8.13328 -2.40907,1.78784 m 11.62821,11.86565 -5.97073,3.65382 m 13.92713,10.77188 -2.68989,1.32834 m 9.30207,13.76073 -6.53348,2.51271 m 11.73178,13.11979 -2.88744,0.81407 m 6.61839,15.23198 -6.88427,1.26764 m 9.11495,15.05477 -2.98796,0.26859 m 3.7098,15.86454 -7,0"
         id="path3761" />
      <text
         inkscape:transform-center-y="-135.78174"
         sodipodi:linespacing="125%"
         id="text4535"
         y="550.22058"
         x="369.52197"
         style="font-size:40px;font-style:normal;font-weight:normal;text-align:center;line-height:125%;letter-spacing:0px;word-spacing:0px;text-anchor:middle;fill:#ffffff;fill-opacity:1;stroke:none;font-family:Sans"
         xml:space="preserve"><tspan
           style="font-size:10px;font-weight:bold;text-align:center;text-anchor:middle;-inkscape-font-specification:Sans Bold"
           y="550.22058"
           x="369.52197"
           id="tspan4537"
           sodipodi:role="line">0</tspan></text>
      <text
         inkscape:transform-center-x="66.449194"
         transform="matrix(0.87206927,-0.48938245,0.48938245,0.87206927,0,0)"
         xml:space="preserve"
         style="font-size:40px;font-style:normal;font-weight:normal;text-align:center;line-height:125%;letter-spacing:0px;word-spacing:0px;text-anchor:middle;fill:#ffffff;fill-opacity:1;stroke:none;font-family:Sans"
         x="-11.748498"
         y="644.00385"
         id="text4543"
         sodipodi:linespacing="125%"
         inkscape:transform-center-y="-118.41107"><tspan
           sodipodi:role="line"
           id="tspan4545"
           x="-11.748498"
           y="644.00385"
           style="font-size:10px;font-weight:bold;text-align:center;text-anchor:middle;-inkscape-font-specification:Sans Bold">33</tspan></text>
      <text
         inkscape:transform-center-x="116.75226"
         transform="matrix(0.51054292,-0.85985227,0.85985227,0.51054292,0,0)"
         xml:space="preserve"
         style="font-size:40px;font-style:normal;font-weight:normal;text-align:center;line-height:125%;letter-spacing:0px;word-spacing:0px;text-anchor:middle;fill:#ffffff;fill-opacity:1;stroke:none;font-family:Sans"
         x="-398.30804"
         y="534.38397"
         id="text4547"
         sodipodi:linespacing="125%"
         inkscape:transform-center-y="-69.322404"><tspan
           sodipodi:role="line"
           id="tspan4549"
           x="-398.30804"
           y="534.38397"
           style="font-size:10px;font-weight:bold;text-align:center;text-anchor:middle;-inkscape-font-specification:Sans Bold">30</tspan></text>
      <text
         inkscape:transform-center-y="1.6588286"
         inkscape:transform-center-x="135.7287"
         transform="matrix(-0.012217,-0.99992537,0.99992537,-0.012217,0,0)"
         xml:space="preserve"
         style="font-size:40px;font-style:normal;font-weight:normal;text-align:center;line-height:125%;letter-spacing:0px;word-spacing:0px;text-anchor:middle;fill:#ffffff;fill-opacity:1;stroke:none;font-family:Sans"
         x="-684.14777"
         y="229.52762"
         id="text4551"
         sodipodi:linespacing="125%"><tspan
           sodipodi:role="line"
           id="tspan4553"
           x="-684.14777"
           y="229.52762"
           style="font-size:10px;font-weight:bold;text-align:center;text-anchor:middle;-inkscape-font-specification:Sans Bold">27</tspan></text>
      <text
         inkscape:transform-center-y="69.323131"
         inkscape:transform-center-x="116.75264"
         transform="matrix(-0.51054292,-0.85985227,0.85985227,-0.51054292,0,0)"
         xml:space="preserve"
         style="font-size:40px;font-style:normal;font-weight:normal;text-align:center;line-height:125%;letter-spacing:0px;word-spacing:0px;text-anchor:middle;fill:#ffffff;fill-opacity:1;stroke:none;font-family:Sans"
         x="-772.94867"
         y="-162.33655"
         id="text4555"
         sodipodi:linespacing="125%"><tspan
           sodipodi:role="line"
           id="tspan4557"
           x="-772.94867"
           y="-162.33655"
           style="font-size:10px;font-weight:bold;text-align:center;text-anchor:middle;-inkscape-font-specification:Sans Bold">24</tspan></text>
      <text
         inkscape:transform-center-y="118.41148"
         inkscape:transform-center-x="66.449902"
         transform="matrix(-0.87206927,-0.48938245,0.48938245,-0.87206927,0,0)"
         xml:space="preserve"
         style="font-size:40px;font-style:normal;font-weight:normal;text-align:center;line-height:125%;letter-spacing:0px;word-spacing:0px;text-anchor:middle;fill:#ffffff;fill-opacity:1;stroke:none;font-family:Sans"
         x="-653.75012"
         y="-546.10181"
         id="text4559"
         sodipodi:linespacing="125%"><tspan
           sodipodi:role="line"
           id="tspan4561"
           x="-653.75012"
           y="-546.10181"
           style="font-size:10px;font-weight:bold;text-align:center;text-anchor:middle;-inkscape-font-specification:Sans Bold">21</tspan></text>
      <text
         inkscape:transform-center-y="135.81091"
         inkscape:transform-center-x="-1.6580192"
         transform="matrix(-0.99992537,0.012217,-0.012217,-0.99992537,0,0)"
         xml:space="preserve"
         style="font-size:40px;font-style:normal;font-weight:normal;text-align:center;line-height:125%;letter-spacing:0px;word-spacing:0px;text-anchor:middle;fill:#ffffff;fill-opacity:1;stroke:none;font-family:Sans"
         x="-358.89984"
         y="-818.93658"
         id="text4563"
         sodipodi:linespacing="125%"><tspan
           sodipodi:role="line"
           id="tspan4565"
           x="-358.89984"
           y="-818.93658"
           style="font-size:10px;font-weight:bold;text-align:center;text-anchor:middle;-inkscape-font-specification:Sans Bold">18</tspan></text>
      <text
         inkscape:transform-center-y="116.75147"
         inkscape:transform-center-x="-69.321003"
         transform="matrix(-0.85985227,0.51054292,-0.51054292,-0.85985227,0,0)"
         xml:space="preserve"
         style="font-size:40px;font-style:normal;font-weight:normal;line-height:125%;letter-spacing:0px;word-spacing:0px;fill:#ffffff;fill-opacity:1;stroke:none;font-family:Sans"
         x="32.832172"
         y="-907.7373"
         id="text4567"
         sodipodi:linespacing="125%"><tspan
           sodipodi:role="line"
           id="tspan4569"
           x="32.832172"
           y="-907.7373"
           style="font-size:10px;font-weight:bold;text-align:center;text-anchor:middle;-inkscape-font-specification:Sans Bold">16</tspan></text>
      <text
         inkscape:transform-center-y="66.448525"
         inkscape:transform-center-x="-118.41064"
         transform="matrix(-0.48938245,0.87206927,-0.87206927,-0.48938245,0,0)"
         xml:space="preserve"
         style="font-size:40px;font-style:normal;font-weight:normal;line-height:125%;letter-spacing:0px;word-spacing:0px;fill:#ffffff;fill-opacity:1;stroke:none;font-family:Sans"
         x="416.47348"
         y="-788.71149"
         id="text4571"
         sodipodi:linespacing="125%"><tspan
           sodipodi:role="line"
           id="tspan4573"
           x="416.47348"
           y="-788.71149"
           style="font-size:10px;font-weight:bold;text-align:center;text-anchor:middle;-inkscape-font-specification:Sans Bold">12</tspan></text>
      <text
         inkscape:transform-center-y="5.6043146e-05"
         inkscape:transform-center-x="-135.78171"
         transform="matrix(0,1,-1,0,0,0)"
         xml:space="preserve"
         style="font-size:40px;font-style:normal;font-weight:normal;text-align:center;line-height:125%;letter-spacing:0px;word-spacing:0px;text-anchor:middle;fill:#ffffff;fill-opacity:1;stroke:none;font-family:Sans"
         x="681.78363"
         y="-502.14206"
         id="text4575"
         sodipodi:linespacing="125%"><tspan
           sodipodi:role="line"
           id="tspan4577"
           x="681.78363"
           y="-502.14206"
           style="font-size:10px;font-weight:bold;text-align:center;text-anchor:middle;-inkscape-font-specification:Sans Bold">9</tspan></text>
      <text
         inkscape:transform-center-y="-67.890799"
         inkscape:transform-center-x="-117.59044"
         transform="matrix(0.5,0.8660254,-0.8660254,0.5,0,0)"
         xml:space="preserve"
         style="font-size:40px;font-style:normal;font-weight:normal;text-align:center;line-height:125%;letter-spacing:0px;word-spacing:0px;text-anchor:middle;fill:#ffffff;fill-opacity:1;stroke:none;font-family:Sans"
         x="775.36469"
         y="-111.3903"
         id="text4579"
         sodipodi:linespacing="125%"><tspan
           sodipodi:role="line"
           id="tspan4581"
           x="775.36469"
           y="-111.3903"
           style="font-size:10px;font-weight:bold;text-align:center;text-anchor:middle;-inkscape-font-specification:Sans Bold">6</tspan></text>
      <text
         inkscape:transform-center-y="-117.59038"
         inkscape:transform-center-x="-67.890891"
         transform="matrix(0.8660254,0.5,-0.5,0.8660254,0,0)"
         xml:space="preserve"
         style="font-size:40px;font-style:normal;font-weight:normal;text-align:center;line-height:125%;letter-spacing:0px;word-spacing:0px;text-anchor:middle;fill:#ffffff;fill-opacity:1;stroke:none;font-family:Sans"
         x="660.87854"
         y="273.80118"
         id="text4583"
         sodipodi:linespacing="125%"><tspan
           sodipodi:role="line"
           id="tspan4585"
           x="660.87854"
           y="273.80118"
           style="font-size:10px;font-weight:bold;text-align:center;text-anchor:middle;-inkscape-font-specification:Sans Bold">3</tspan></text>
    </g>
  </g>
</svg>
