<?xml version="1.0" encoding="iso-8859-1"?>
<!-- Generator: Adobe Illustrator 19.0.0, SVG Export Plug-In . SVG Version: 6.00 Build 0)  -->
<svg version="1.1" id="Capa_1" xmlns="http://www.w3.org/2000/svg" xmlns:xlink="http://www.w3.org/1999/xlink" x="0px" y="0px"
	 viewBox="0 0 490 490" style="enable-background:new 0 0 490 490;" xml:space="preserve">
<g>
	<polygon points="299.78,359.69 368.994,318.14 368.994,132.077 299.78,176.821 	"/>
	<polygon points="190.917,124.894 121.006,160.511 121.006,354.969 190.464,311.67 190.917,311.388 	"/>
	<polygon points="284.467,177.708 283.139,176.852 206.23,127.272 206.23,311.399 206.664,311.67 284.467,360.17 	"/>
	<path d="M245,0C109.69,0,0,109.69,0,245s109.69,245,245,245s245-109.69,245-245S380.31,0,245,0z M384.307,326.806l-92.871,55.753
		l-92.871-57.895l-92.871,57.895V151.127l92.613-47.182l7.628,4.918h0.295v0.19l85.206,54.929l92.871-60.037V326.806z"/>
</g>
<g>
</g>
<g>
</g>
<g>
</g>
<g>
</g>
<g>
</g>
<g>
</g>
<g>
</g>
<g>
</g>
<g>
</g>
<g>
</g>
<g>
</g>
<g>
</g>
<g>
</g>
<g>
</g>
<g>
</g>
</svg>
