<?xml version="1.0" encoding="iso-8859-1"?>
<!-- Generator: Adobe Illustrator 19.0.0, SVG Export Plug-In . SVG Version: 6.00 Build 0)  -->
<svg version="1.1" id="Capa_1" xmlns="http://www.w3.org/2000/svg" xmlns:xlink="http://www.w3.org/1999/xlink" x="0px" y="0px"
	 viewBox="0 0 490 490" style="enable-background:new 0 0 490 490;" xml:space="preserve">
<g>
	<path d="M401.161,57.429c22.18,20.037,36.203,48.934,36.203,81.178c0,10.139-1.384,19.954-3.964,29.272
		c-1.08,3.902-2.37,7.717-3.858,11.431l-2.993,6.799l-91.021,168.215v130.354L490,391.948V0L401.161,57.429z"/>
	<polygon points="155.697,3.659 0,82.979 0,490 155.697,392.942 	"/>
	<path d="M229.324,186.37l-3.32-7.545c-1.406-3.56-2.626-7.213-3.66-10.945c-2.579-9.318-3.963-19.132-3.963-29.272
		c0-31.716,13.566-60.195,35.115-80.191L171.01,5.241v387.725l149.207,93.013V354.327L229.324,186.37z"/>
	<path d="M327.873,104.485c-18.269,0-33.132,14.863-33.132,33.132c0,18.269,14.863,33.132,33.132,33.132
		c18.269,0,33.132-14.863,33.132-33.132C361.004,119.348,346.142,104.485,327.873,104.485z"/>
	<path d="M327.873,44.429c-51.931,0-94.179,42.249-94.179,94.179c0,8.541,1.147,17.015,3.408,25.188
		c0.888,3.21,1.946,6.373,3.143,9.402l2.837,6.423l84.79,156.679l84.914-156.928l2.741-6.229c1.08-2.721,2.195-6.024,3.116-9.348
		c2.262-8.172,3.409-16.646,3.409-25.188C422.052,86.678,379.803,44.429,327.873,44.429z M327.873,186.06
		c-26.755,0-48.444-21.689-48.444-48.444c0-26.755,21.689-48.444,48.444-48.444s48.444,21.689,48.444,48.444
		C376.317,164.371,354.628,186.06,327.873,186.06z"/>
</g>
<g>
</g>
<g>
</g>
<g>
</g>
<g>
</g>
<g>
</g>
<g>
</g>
<g>
</g>
<g>
</g>
<g>
</g>
<g>
</g>
<g>
</g>
<g>
</g>
<g>
</g>
<g>
</g>
<g>
</g>
</svg>
