<?xml version="1.0" encoding="iso-8859-1"?>
<!-- Generator: Adobe Illustrator 19.0.0, SVG Export Plug-In . SVG Version: 6.00 Build 0)  -->
<svg version="1.1" id="Capa_1" xmlns="http://www.w3.org/2000/svg" xmlns:xlink="http://www.w3.org/1999/xlink" x="0px" y="0px"
	 viewBox="0 0 490 490" style="enable-background:new 0 0 490 490;" xml:space="preserve">
<g>
	<polygon points="222.862,85.933 122.509,21.24 122.509,293.797 222.862,356.354 	"/>
	<polygon points="107.197,19.82 0,74.431 0,360.602 107.197,293.778 	"/>
	<path d="M298.578,313.219c-2.48-8.959-3.81-18.396-3.81-28.143c0-37.733,19.917-70.734,49.747-89.318V16.089L238.175,84.832V355.5
		l62.079-37.267C299.699,316.559,299.05,314.928,298.578,313.219z"/>
	<path d="M400.04,252.857c-17.24,0-31.265,14.025-31.265,31.265s14.025,31.265,31.265,31.265c17.24,0,31.265-14.025,31.265-31.265
		S417.279,252.857,400.04,252.857z"/>
	<path d="M400.04,195.115c-49.604,0-89.96,40.356-89.96,89.96c0,8.159,1.095,16.253,3.256,24.059
		c0.848,3.065,1.858,6.087,3.001,8.98l2.71,6.133l80.992,149.663l81.113-149.902l2.625-5.966c1.023-2.577,2.089-5.733,2.967-8.908
		c2.161-7.805,3.256-15.899,3.256-24.059C490,235.471,449.643,195.115,400.04,195.115z M400.04,330.699
		c-25.725,0-46.577-20.854-46.577-46.577c0-25.724,20.853-46.577,46.577-46.577c25.724,0,46.577,20.854,46.577,46.577
		C446.617,309.846,425.763,330.699,400.04,330.699z"/>
</g>
<g>
</g>
<g>
</g>
<g>
</g>
<g>
</g>
<g>
</g>
<g>
</g>
<g>
</g>
<g>
</g>
<g>
</g>
<g>
</g>
<g>
</g>
<g>
</g>
<g>
</g>
<g>
</g>
<g>
</g>
</svg>
