<?xml version="1.0" encoding="iso-8859-1"?>
<!-- Generator: Adobe Illustrator 19.0.0, SVG Export Plug-In . SVG Version: 6.00 Build 0)  -->
<svg version="1.1" id="Capa_1" xmlns="http://www.w3.org/2000/svg" xmlns:xlink="http://www.w3.org/1999/xlink" x="0px" y="0px"
	 viewBox="0 0 490 490" style="enable-background:new 0 0 490 490;" xml:space="preserve">
<g>
	<path d="M245,0C157.687,0,86.906,70.781,86.906,158.094c0,14.64,1.998,28.811,5.722,42.266c1.491,5.388,3.253,10.664,5.284,15.804
		l4.794,10.894L245,490l142.481-263.316l4.321-9.818c2.149-5.363,4.011-10.871,5.57-16.506c3.725-13.454,5.723-27.626,5.723-42.266
		C403.094,70.781,332.313,0,245,0z M245,235.307c-43.37,0-78.651-35.281-78.651-78.651S201.63,78.005,245,78.005
		s78.651,35.281,78.651,78.651S288.37,235.307,245,235.307z"/>
	<path d="M245,95.408c-33.768,0-61.249,27.48-61.249,61.249c0,33.768,27.48,61.249,61.249,61.249s61.248-27.48,61.248-61.249
		C306.249,122.888,278.768,95.408,245,95.408z"/>
</g>
<g>
</g>
<g>
</g>
<g>
</g>
<g>
</g>
<g>
</g>
<g>
</g>
<g>
</g>
<g>
</g>
<g>
</g>
<g>
</g>
<g>
</g>
<g>
</g>
<g>
</g>
<g>
</g>
<g>
</g>
</svg>
