<?xml version="1.0" encoding="iso-8859-1"?>
<!-- Generator: Adobe Illustrator 19.0.0, SVG Export Plug-In . SVG Version: 6.00 Build 0)  -->
<svg version="1.1" id="Capa_1" xmlns="http://www.w3.org/2000/svg" xmlns:xlink="http://www.w3.org/1999/xlink" x="0px" y="0px"
	 viewBox="0 0 490 490" style="enable-background:new 0 0 490 490;" xml:space="preserve">
<g>
	<path d="M379.693,0c-60.921,0-110.306,49.386-110.306,110.306c0,10.215,1.395,20.102,3.993,29.49
		c1.088,3.931,2.387,7.774,3.887,11.516l3.014,6.85l99.413,183.723l99.284-183.461l3.344-7.601
		c1.417-3.586,2.646-7.268,3.687-11.026c2.598-9.388,3.993-19.275,3.993-29.49C490,49.386,440.614,0,379.693,0z M379.687,165.776
		c-31.133,0-56.45-25.331-56.45-56.465s25.316-56.465,56.45-56.465s56.465,25.331,56.465,56.465S410.821,165.776,379.687,165.776z"
		/>
	<path d="M379.687,68.159c-22.685,0-41.137,18.468-41.137,41.152s18.453,41.152,41.137,41.152s41.152-18.468,41.152-41.152
		S402.372,68.159,379.687,68.159z"/>
	<path d="M110.313,216.274c-22.685,0-41.152,18.468-41.152,41.152c0,22.685,18.468,41.137,41.152,41.137
		s41.137-18.453,41.137-41.137C151.45,234.742,132.997,216.274,110.313,216.274z"/>
	<path d="M110.307,148.114C49.386,148.114,0,197.5,0,258.421c0,10.214,1.394,20.102,3.993,29.489
		c1.089,3.932,2.388,7.775,3.887,11.516l3.014,6.851L110.307,490l99.283-183.462l3.344-7.6c1.418-3.587,2.647-7.268,3.687-11.027
		c2.598-9.387,3.993-19.275,3.993-29.489C220.613,197.5,171.227,148.114,110.307,148.114z M110.313,313.876
		c-31.133,0-56.465-25.316-56.465-56.45c0-31.134,25.331-56.465,56.465-56.465s56.45,25.331,56.45,56.465
		C166.763,288.56,141.446,313.876,110.313,313.876z"/>
</g>
<g>
</g>
<g>
</g>
<g>
</g>
<g>
</g>
<g>
</g>
<g>
</g>
<g>
</g>
<g>
</g>
<g>
</g>
<g>
</g>
<g>
</g>
<g>
</g>
<g>
</g>
<g>
</g>
<g>
</g>
</svg>
