<?xml version="1.0" encoding="iso-8859-1"?>
<!-- Generator: Adobe Illustrator 19.0.0, SVG Export Plug-In . SVG Version: 6.00 Build 0)  -->
<svg version="1.1" id="Capa_1" xmlns="http://www.w3.org/2000/svg" xmlns:xlink="http://www.w3.org/1999/xlink" x="0px" y="0px"
	 viewBox="0 0 490 490" style="enable-background:new 0 0 490 490;" xml:space="preserve">
<g>
	<path d="M245,102.028c-30.126,0-54.636,24.509-54.636,54.636c0,30.126,24.51,54.636,54.636,54.636s54.636-24.51,54.636-54.636
		C299.636,126.536,275.126,102.028,245,102.028z"/>
	<path d="M245,57.571c-54.641,0-99.083,44.457-99.083,99.098s44.442,99.083,99.083,99.083s99.083-44.442,99.083-99.083
		S299.641,57.571,245,57.571z M245,226.612c-38.632,0-69.948-31.317-69.948-69.948c0-38.632,31.317-69.948,69.948-69.948
		s69.948,31.317,69.948,69.948C314.948,195.294,283.632,226.612,245,226.612z"/>
	<path d="M245,0C157.687,0,86.905,70.781,86.905,158.094c0,14.641,1.999,28.812,5.724,42.266c1.491,5.388,3.252,10.663,5.283,15.803
		l4.794,10.894L245,490l142.481-263.316l4.321-9.818c2.149-5.363,4.011-10.871,5.57-16.505c3.724-13.455,5.724-27.626,5.724-42.266
		C403.095,70.781,332.313,0,245,0z M245,271.064c-63.074,0-114.395-51.321-114.395-114.395c0-63.089,51.321-114.41,114.395-114.41
		s114.395,51.321,114.395,114.41C359.395,219.743,308.074,271.064,245,271.064z"/>
</g>
<g>
</g>
<g>
</g>
<g>
</g>
<g>
</g>
<g>
</g>
<g>
</g>
<g>
</g>
<g>
</g>
<g>
</g>
<g>
</g>
<g>
</g>
<g>
</g>
<g>
</g>
<g>
</g>
<g>
</g>
</svg>
