<?xml version="1.0" encoding="iso-8859-1"?>
<!-- Generator: Adobe Illustrator 19.0.0, SVG Export Plug-In . SVG Version: 6.00 Build 0)  -->
<svg version="1.1" id="Capa_1" xmlns="http://www.w3.org/2000/svg" xmlns:xlink="http://www.w3.org/1999/xlink" x="0px" y="0px"
	 viewBox="0 0 490 490" style="enable-background:new 0 0 490 490;" xml:space="preserve">
<g>
	<path d="M245,0C109.689,0,0,109.69,0,245s109.689,245,245,245c135.309,0,245-109.69,245-245S380.309,0,245,0z M353.837,217.331
		c-1.122,4.008-2.452,7.955-3.963,11.768l-3.006,6.804L245.005,424.229L140.045,228.875c-1.57-3.933-2.826-7.716-3.888-11.559
		c-2.707-9.81-4.082-19.963-4.082-30.191c0-62.267,50.663-112.93,112.93-112.93c62.267,0,112.93,50.663,112.93,112.93
		C357.934,197.353,356.559,207.507,353.837,217.331z"/>
	<path d="M245.004,89.508c-53.833,0-97.617,43.784-97.617,97.617c0,8.853,1.196,17.63,3.529,26.109
		c0.927,3.32,2.004,6.565,3.26,9.735l3.081,6.998l87.748,162.082l90.753-168.871c1.211-3.066,2.363-6.475,3.335-9.959
		c2.333-8.464,3.529-17.241,3.529-26.094C342.621,133.292,298.837,89.508,245.004,89.508z M245.004,240.405
		c-29.907,0-54.237-24.33-54.237-54.222c0-29.907,24.329-54.237,54.237-54.237c29.892,0,54.222,24.33,54.222,54.237
		C299.226,216.075,274.897,240.405,245.004,240.405z"/>
	<path d="M245.004,147.259c-21.459,0-38.924,17.466-38.924,38.924c0,21.458,17.466,38.909,38.924,38.909
		c21.458,0,38.909-17.451,38.909-38.909C283.914,164.725,266.463,147.259,245.004,147.259z"/>
</g>
<g>
</g>
<g>
</g>
<g>
</g>
<g>
</g>
<g>
</g>
<g>
</g>
<g>
</g>
<g>
</g>
<g>
</g>
<g>
</g>
<g>
</g>
<g>
</g>
<g>
</g>
<g>
</g>
<g>
</g>
</svg>
