<?xml version="1.0" encoding="iso-8859-1"?>
<!-- Generator: Adobe Illustrator 19.0.0, SVG Export Plug-In . SVG Version: 6.00 Build 0)  -->
<svg version="1.1" id="Capa_1" xmlns="http://www.w3.org/2000/svg" xmlns:xlink="http://www.w3.org/1999/xlink" x="0px" y="0px"
	 viewBox="0 0 490 490" style="enable-background:new 0 0 490 490;" xml:space="preserve">
<g>
	<path d="M245.001,0C157.687,0,86.905,70.782,86.905,158.095c0,14.64,1.999,28.811,5.724,42.266
		c1.491,5.388,3.252,10.663,5.283,15.804l4.793,10.893L245.001,490l142.481-263.316l4.321-9.818
		c2.149-5.363,4.011-10.87,5.57-16.505c3.724-13.455,5.723-27.626,5.723-42.266C403.095,70.782,332.314,0,245.001,0z
		 M320.307,164.321h-67.65v67.65h-15.313v-67.65h-67.65v-15.313h67.65v-67.65h15.313v67.65h67.65V164.321z"/>
</g>
<g>
</g>
<g>
</g>
<g>
</g>
<g>
</g>
<g>
</g>
<g>
</g>
<g>
</g>
<g>
</g>
<g>
</g>
<g>
</g>
<g>
</g>
<g>
</g>
<g>
</g>
<g>
</g>
<g>
</g>
</svg>
