<?xml version="1.0" encoding="iso-8859-1"?>
<!-- Generator: Adobe Illustrator 19.0.0, SVG Export Plug-In . SVG Version: 6.00 Build 0)  -->
<svg version="1.1" id="Capa_1" xmlns="http://www.w3.org/2000/svg" xmlns:xlink="http://www.w3.org/1999/xlink" x="0px" y="0px"
	 viewBox="0 0 490 490" style="enable-background:new 0 0 490 490;" xml:space="preserve">
<g>
	<path d="M139.109,0C62.281,0,0,62.281,0,139.108c0,12.882,1.759,25.351,5.036,37.19c1.312,4.741,2.863,9.382,4.65,13.906
		l4.218,9.585l125.206,231.364L264.478,199.46l3.802-8.638c1.891-4.719,3.529-9.566,4.901-14.524
		c3.277-11.839,5.036-24.308,5.036-37.19C278.217,62.281,215.936,0,139.109,0z M139.109,207.048
		c-38.162,0-69.205-31.044-69.205-69.205s31.044-69.205,69.205-69.205s69.205,31.044,69.205,69.205S177.27,207.048,139.109,207.048z
		"/>
	<path d="M139.109,83.95c-29.713,0-53.893,24.18-53.893,53.893s24.18,53.893,53.893,53.893s53.893-24.18,53.893-53.893
		S168.822,83.95,139.109,83.95z"/>
	<path d="M378.984,267.969c-61.312,0-111.016,49.703-111.016,111.016c0,61.312,49.704,111.016,111.016,111.016
		C440.297,490,490,440.296,490,378.984C490,317.672,440.297,267.969,378.984,267.969z M439.183,386.641h-52.547v52.532h-15.313
		v-52.532h-52.532v-15.313h52.532v-52.532h15.313v52.532h52.547V386.641z"/>
</g>
<g>
</g>
<g>
</g>
<g>
</g>
<g>
</g>
<g>
</g>
<g>
</g>
<g>
</g>
<g>
</g>
<g>
</g>
<g>
</g>
<g>
</g>
<g>
</g>
<g>
</g>
<g>
</g>
<g>
</g>
</svg>
