<?xml version="1.0" encoding="iso-8859-1"?>
<!-- Generator: Adobe Illustrator 19.0.0, SVG Export Plug-In . SVG Version: 6.00 Build 0)  -->
<svg version="1.1" id="Capa_1" xmlns="http://www.w3.org/2000/svg" xmlns:xlink="http://www.w3.org/1999/xlink" x="0px" y="0px"
	 viewBox="0 0 490 490" style="enable-background:new 0 0 490 490;" xml:space="preserve">
<g>
	<path d="M107.81,65.625c-21.196,0-38.441,17.245-38.441,38.441s17.245,38.441,38.441,38.441c21.18,0,38.425-17.245,38.425-38.441
		S128.99,65.625,107.81,65.625z"/>
	<path d="M487.212,350.559h-94.325l-28.869-85.647l-26.031,77.227l-154.563-156.4l19.026-35.161l2.87-6.521
		c1.428-3.563,2.664-7.221,3.701-10.964c2.473-8.937,3.801-18.351,3.801-28.076C212.822,47.017,165.804,0,107.805,0
		S2.788,47.017,2.788,105.016c0,9.725,1.328,19.139,3.802,28.076c0.991,3.579,2.161,7.083,3.51,10.498l3.184,7.236l94.522,174.664
		l67.634-124.995l148.302,150.064h-82.874l76.287,53.452L288.221,490l75.818-53.154L439.879,490l-28.976-85.988L487.212,350.559z
		 M107.81,158.56c-30.053,0-54.494-24.441-54.494-54.494s24.441-54.494,54.494-54.494c30.038,0,54.479,24.441,54.479,54.494
		S137.848,158.56,107.81,158.56z"/>
</g>
<g>
</g>
<g>
</g>
<g>
</g>
<g>
</g>
<g>
</g>
<g>
</g>
<g>
</g>
<g>
</g>
<g>
</g>
<g>
</g>
<g>
</g>
<g>
</g>
<g>
</g>
<g>
</g>
<g>
</g>
</svg>
