<?xml version="1.0" encoding="iso-8859-1"?>
<!-- Generator: Adobe Illustrator 19.0.0, SVG Export Plug-In . SVG Version: 6.00 Build 0)  -->
<svg version="1.1" id="Capa_1" xmlns="http://www.w3.org/2000/svg" xmlns:xlink="http://www.w3.org/1999/xlink" x="0px" y="0px"
	 viewBox="0 0 490 490" style="enable-background:new 0 0 490 490;" xml:space="preserve">
<g>
	<path d="M139.109,0.04C62.281,0.04,0,62.321,0,139.148c0,12.882,1.759,25.351,5.036,37.19c1.312,4.741,2.863,9.383,4.65,13.906
		l4.217,9.585l125.207,231.364L264.478,199.5l3.801-8.638c1.892-4.719,3.53-9.566,4.902-14.524
		c3.277-11.839,5.036-24.308,5.036-37.19C278.216,62.321,215.936,0.04,139.109,0.04z M139.109,207.088
		c-38.162,0-69.205-31.044-69.205-69.205c0-38.162,31.044-69.205,69.205-69.205s69.205,31.044,69.205,69.205
		C208.314,176.044,177.27,207.088,139.109,207.088z"/>
	<path d="M139.109,83.99c-29.72,0-53.893,24.18-53.893,53.893c0,29.713,24.173,53.893,53.893,53.893s53.893-24.18,53.893-53.893
		C193.001,108.17,168.829,83.99,139.109,83.99z"/>
	<path d="M432.158,477.607c-18.852,9.104-36.4,12.353-58.815,12.353c-53.619,0-100.097-38.676-100.097-102.043
		c0-66.286,47.451-124.128,120.235-124.128c57.198,0,96.518,39.65,96.518,93.912c0,48.094-26.967,77.337-59.788,77.337
		c-14.299,0-25.68-8.115-26.323-26.637h-0.973c-10.736,17.863-25.35,26.637-43.558,26.637c-20.139,0-36.071-15.587-36.071-41.596
		c0-39.963,30.545-76.364,76.693-76.364c14.299,0,28.599,3.249,37.044,7.472l-10.391,59.474
		c-3.908,21.771-0.973,31.848,8.774,31.848c15.273,0.644,33.151-19.181,33.151-56.555c0-44.845-27.626-77.666-77.996-77.666
		c-51.343,0-95.215,39.979-95.215,103.99c0,54.279,35.097,86.127,83.192,86.127c17.549,0,35.098-3.579,48.094-10.721
		L432.158,477.607z M408.441,340.796c-3.249-0.973-7.487-1.946-13.012-1.946c-24.691,0-44.186,24.047-44.186,51.673
		c0,13.326,6.169,22.415,18.192,22.415c15.273,0,29.902-19.495,33.151-38.661L408.441,340.796z"/>
</g>
<g>
</g>
<g>
</g>
<g>
</g>
<g>
</g>
<g>
</g>
<g>
</g>
<g>
</g>
<g>
</g>
<g>
</g>
<g>
</g>
<g>
</g>
<g>
</g>
<g>
</g>
<g>
</g>
<g>
</g>
</svg>
