<?xml version="1.0" encoding="iso-8859-1"?>
<!-- Generator: Adobe Illustrator 19.0.0, SVG Export Plug-In . SVG Version: 6.00 Build 0)  -->
<svg version="1.1" id="Capa_1" xmlns="http://www.w3.org/2000/svg" xmlns:xlink="http://www.w3.org/1999/xlink" x="0px" y="0px"
	 viewBox="0 0 490 490" style="enable-background:new 0 0 490 490;" xml:space="preserve">
<g>
	<path d="M244.999,0C157.686,0,86.905,70.781,86.905,158.094c0,14.641,1.998,28.812,5.723,42.266
		c1.492,5.388,3.252,10.663,5.284,15.803l4.793,10.894L244.999,490L387.48,226.684l4.321-9.818
		c2.149-5.363,4.011-10.871,5.571-16.505c3.723-13.455,5.722-27.626,5.722-42.266C403.095,70.781,332.313,0,244.999,0z
		 M244.995,269.09l-74.14-74.14l10.827-10.827l55.657,55.657V75.516h15.313v164.266l55.657-55.657l10.826,10.827L244.995,269.09z"/>
</g>
<g>
</g>
<g>
</g>
<g>
</g>
<g>
</g>
<g>
</g>
<g>
</g>
<g>
</g>
<g>
</g>
<g>
</g>
<g>
</g>
<g>
</g>
<g>
</g>
<g>
</g>
<g>
</g>
<g>
</g>
</svg>
