<?xml version="1.0" encoding="iso-8859-1"?>
<!-- Generator: Adobe Illustrator 19.0.0, SVG Export Plug-In . SVG Version: 6.00 Build 0)  -->
<svg version="1.1" id="Capa_1" xmlns="http://www.w3.org/2000/svg" xmlns:xlink="http://www.w3.org/1999/xlink" x="0px" y="0px"
	 viewBox="0 0 490 490" style="enable-background:new 0 0 490 490;" xml:space="preserve">
<g>
	<path d="M158.207,0C70.894,0,0.112,70.781,0.112,158.094c0,14.641,1.999,28.812,5.722,42.266
		c1.492,5.388,3.253,10.663,5.284,15.803l4.793,10.894L158.207,490l142.481-263.316l4.32-9.818
		c2.15-5.363,4.011-10.871,5.571-16.505c3.724-13.455,5.723-27.626,5.723-42.266C316.302,70.781,245.521,0,158.207,0z
		 M158.202,234.263c-42.782,0-77.594-34.812-77.594-77.594c0-42.797,34.812-77.609,77.594-77.609
		c42.797,0,77.609,34.812,77.609,77.609C235.811,199.451,200.999,234.263,158.202,234.263z"/>
	<path d="M158.202,94.372c-34.348,0-62.282,27.948-62.282,62.297c0,34.348,27.933,62.282,62.282,62.282
		c34.348,0,62.297-27.933,62.297-62.282C220.499,122.321,192.55,94.372,158.202,94.372z"/>
	<polygon points="338.871,446.605 323.559,446.605 323.559,323.671 446.492,323.671 446.492,338.983 338.871,338.983 	"/>
	
		<rect x="299.474" y="400.302" transform="matrix(0.7071 0.7071 -0.7071 0.7071 407.9242 -168.902)" width="216.742" height="15.311"/>
</g>
<g>
</g>
<g>
</g>
<g>
</g>
<g>
</g>
<g>
</g>
<g>
</g>
<g>
</g>
<g>
</g>
<g>
</g>
<g>
</g>
<g>
</g>
<g>
</g>
<g>
</g>
<g>
</g>
<g>
</g>
</svg>
