<?xml version="1.0" encoding="iso-8859-1"?>
<!-- Generator: Adobe Illustrator 19.0.0, SVG Export Plug-In . SVG Version: 6.00 Build 0)  -->
<svg version="1.1" id="Capa_1" xmlns="http://www.w3.org/2000/svg" xmlns:xlink="http://www.w3.org/1999/xlink" x="0px" y="0px"
	 viewBox="0 0 490 490" style="enable-background:new 0 0 490 490;" xml:space="preserve">
<g>
	<path d="M245,53.16c-16.015,0-29.04,13.025-29.04,29.04s13.025,29.04,29.04,29.04s29.04-13.025,29.04-29.04
		S261.015,53.16,245,53.16z"/>
	<path d="M407.052,286.063c-16.015,0-29.055,13.025-29.055,29.04c0,16.015,13.04,29.04,29.055,29.04
		c16.015,0,29.04-13.025,29.04-29.04C436.092,299.087,423.068,286.063,407.052,286.063z"/>
	<path d="M82.948,286.063c-16.015,0-29.04,13.025-29.04,29.04c0,16.015,13.025,29.04,29.04,29.04s29.055-13.025,29.055-29.04
		C112.003,299.087,98.963,286.063,82.948,286.063z"/>
	<path d="M414.709,233.267v-88.456h-108.95l14-25.873l2.266-5.151c1.128-2.814,2.105-5.704,2.924-8.66
		c1.953-7.06,3.002-14.496,3.002-22.177C327.951,37.138,290.812,0,245,0s-82.951,37.138-82.951,82.95
		c0,7.682,1.049,15.117,3.003,22.177c0.783,2.826,1.707,5.595,2.773,8.292l2.515,5.716l13.895,25.675H75.291v88.456
		C33.072,237.134,0,272.624,0,315.852c0,7.681,1.049,15.117,3.003,22.176c0.782,2.827,1.707,5.596,2.772,8.292l2.515,5.716
		L82.951,490l74.759-138.16l2.267-5.152c1.127-2.813,2.104-5.704,2.923-8.66c1.954-7.059,3.003-14.495,3.003-22.176
		c0-43.23-33.075-78.721-75.298-82.586v-73.143h101.917L245,257.098l52.473-96.975h101.923v73.143
		c-42.223,3.865-75.298,39.355-75.298,82.586c0,7.681,1.049,15.117,3.003,22.176c0.782,2.827,1.707,5.596,2.772,8.292l2.515,5.716
		L407.049,490l74.759-138.16l2.267-5.152c1.127-2.813,2.104-5.704,2.923-8.66c1.954-7.059,3.003-14.495,3.003-22.176
		C490,272.624,456.929,237.135,414.709,233.267z M127.315,315.103c0,24.449-19.903,44.352-44.367,44.352
		c-24.449,0-44.352-19.903-44.352-44.352c0-24.449,19.903-44.353,44.352-44.353C107.412,270.75,127.315,290.653,127.315,315.103z
		 M245,126.552c-24.449,0-44.352-19.903-44.352-44.352c0-24.449,19.903-44.352,44.352-44.352s44.352,19.903,44.352,44.352
		C289.352,106.649,269.449,126.552,245,126.552z M407.052,359.455c-24.464,0-44.367-19.903-44.367-44.352
		c0-24.449,19.903-44.353,44.367-44.353c24.449,0,44.352,19.903,44.352,44.353C451.405,339.552,431.501,359.455,407.052,359.455z"/>
</g>
<g>
</g>
<g>
</g>
<g>
</g>
<g>
</g>
<g>
</g>
<g>
</g>
<g>
</g>
<g>
</g>
<g>
</g>
<g>
</g>
<g>
</g>
<g>
</g>
<g>
</g>
<g>
</g>
<g>
</g>
</svg>
