<?xml version="1.0" encoding="iso-8859-1"?>
<!-- Generator: Adobe Illustrator 19.0.0, SVG Export Plug-In . SVG Version: 6.00 Build 0)  -->
<svg version="1.1" id="Capa_1" xmlns="http://www.w3.org/2000/svg" xmlns:xlink="http://www.w3.org/1999/xlink" x="0px" y="0px"
	 viewBox="0 0 490 490" style="enable-background:new 0 0 490 490;" xml:space="preserve">
<g>
	<path d="M245,0C157.687,0,86.905,70.782,86.905,158.095c0,14.64,1.999,28.811,5.724,42.266c1.491,5.388,3.252,10.663,5.283,15.804
		l4.794,10.893L245,490l142.481-263.316l4.321-9.818c2.149-5.363,4.011-10.87,5.57-16.505c3.724-13.455,5.724-27.626,5.724-42.266
		C403.095,70.782,332.313,0,245,0z M255.961,238.595h-20.292V126.981h20.292V238.595z M245.359,108.065
		c-7.163,0-12.232-5.533-12.232-12.456c0-7.148,5.309-12.681,12.681-12.681c7.611,0,12.456,5.533,12.456,12.681
		C258.503,102.532,253.419,108.065,245.359,108.065z"/>
</g>
<g>
</g>
<g>
</g>
<g>
</g>
<g>
</g>
<g>
</g>
<g>
</g>
<g>
</g>
<g>
</g>
<g>
</g>
<g>
</g>
<g>
</g>
<g>
</g>
<g>
</g>
<g>
</g>
<g>
</g>
</svg>
