<?xml version="1.0" encoding="iso-8859-1"?>
<!-- Generator: Adobe Illustrator 19.0.0, SVG Export Plug-In . SVG Version: 6.00 Build 0)  -->
<svg version="1.1" id="Capa_1" xmlns="http://www.w3.org/2000/svg" xmlns:xlink="http://www.w3.org/1999/xlink" x="0px" y="0px"
	 viewBox="0 0 490 490" style="enable-background:new 0 0 490 490;" xml:space="preserve">
<g>
	<path d="M139.103,83.95c-29.713,0-53.893,24.18-53.893,53.893s24.18,53.893,53.893,53.893s53.893-24.18,53.893-53.893
		S168.816,83.95,139.103,83.95z"/>
	<path d="M139.108,0C62.281,0,0,62.281,0,139.108c0,12.882,1.758,25.351,5.036,37.19c1.312,4.741,2.862,9.382,4.649,13.906
		l4.218,9.585l125.206,231.364L264.477,199.46l3.802-8.638c1.891-4.719,3.529-9.566,4.902-14.524
		c3.277-11.839,5.035-24.308,5.035-37.19C278.216,62.281,215.935,0,139.108,0z M139.103,207.048
		c-38.162,0-69.205-31.044-69.205-69.205s31.044-69.205,69.205-69.205s69.205,31.044,69.205,69.205S177.265,207.048,139.103,207.048
		z"/>
	<path d="M378.984,267.969c-61.313,0-111.016,49.703-111.016,111.016c0,61.312,49.703,111.016,111.016,111.016
		C440.296,490,490,440.296,490,378.984C490,317.672,440.296,267.969,378.984,267.969z M318.786,386.641v-15.313h120.392v15.313
		H318.786z"/>
</g>
<g>
</g>
<g>
</g>
<g>
</g>
<g>
</g>
<g>
</g>
<g>
</g>
<g>
</g>
<g>
</g>
<g>
</g>
<g>
</g>
<g>
</g>
<g>
</g>
<g>
</g>
<g>
</g>
<g>
</g>
</svg>
