<?xml version="1.0" encoding="iso-8859-1"?>
<!-- Generator: Adobe Illustrator 19.0.0, SVG Export Plug-In . SVG Version: 6.00 Build 0)  -->
<svg version="1.1" id="Capa_1" xmlns="http://www.w3.org/2000/svg" xmlns:xlink="http://www.w3.org/1999/xlink" x="0px" y="0px"
	 viewBox="0 0 490 490" style="enable-background:new 0 0 490 490;" xml:space="preserve">
<g>
	<polygon points="162.069,336.754 245,490 327.922,336.754 	"/>
	<path d="M182.654,156.398c0,34.376,27.97,62.346,62.346,62.346s62.346-27.97,62.346-62.346S279.376,94.06,245,94.06
		S182.654,122.022,182.654,156.398z"/>
	<path d="M252.662,0v79.509c39.194,3.912,70.008,36.689,70.008,76.889c0,42.831-34.84,77.671-77.671,77.671
		c-42.831,0-77.671-34.839-77.671-77.671c0-40.2,30.815-72.976,70.008-76.889V0C153.539,4.025,86.78,73.037,86.78,157.832
		c0,14.652,2.001,28.835,5.728,42.3c1.492,5.392,3.255,10.671,5.287,15.816l4.797,10.902l51.183,94.58h182.438l51.38-94.954
		l4.324-9.826c2.15-5.367,4.014-10.88,5.575-16.518c3.727-13.465,5.728-27.648,5.728-42.3C403.22,73.037,336.461,4.025,252.662,0z"
		/>
</g>
<g>
</g>
<g>
</g>
<g>
</g>
<g>
</g>
<g>
</g>
<g>
</g>
<g>
</g>
<g>
</g>
<g>
</g>
<g>
</g>
<g>
</g>
<g>
</g>
<g>
</g>
<g>
</g>
<g>
</g>
</svg>
