<?xml version="1.0" encoding="iso-8859-1"?>
<!-- Generator: Adobe Illustrator 19.0.0, SVG Export Plug-In . SVG Version: 6.00 Build 0)  -->
<svg version="1.1" id="Capa_1" xmlns="http://www.w3.org/2000/svg" xmlns:xlink="http://www.w3.org/1999/xlink" x="0px" y="0px"
	 viewBox="0 0 490 490" style="enable-background:new 0 0 490 490;" xml:space="preserve">
<g>
	<path d="M245,0C157.687,0,86.905,70.781,86.905,158.094c0,14.641,1.999,28.812,5.724,42.266c1.491,5.388,3.252,10.663,5.283,15.803
		l4.794,10.894L245,490l142.481-263.316l4.321-9.818c2.149-5.363,4.011-10.871,5.57-16.505c3.724-13.455,5.724-27.626,5.724-42.266
		C403.095,70.781,332.313,0,245,0z M308.314,160.856l-55.657-55.657v164.265h-15.313V105.199l-55.657,55.657L170.86,150.03
		L245,75.89l74.14,74.14L308.314,160.856z"/>
</g>
<g>
</g>
<g>
</g>
<g>
</g>
<g>
</g>
<g>
</g>
<g>
</g>
<g>
</g>
<g>
</g>
<g>
</g>
<g>
</g>
<g>
</g>
<g>
</g>
<g>
</g>
<g>
</g>
<g>
</g>
</svg>
