<?xml version="1.0" encoding="iso-8859-1"?>
<!-- Generator: Adobe Illustrator 19.0.0, SVG Export Plug-In . SVG Version: 6.00 Build 0)  -->
<svg version="1.1" id="Capa_1" xmlns="http://www.w3.org/2000/svg" xmlns:xlink="http://www.w3.org/1999/xlink" x="0px" y="0px"
	 viewBox="0 0 490 490" style="enable-background:new 0 0 490 490;" xml:space="preserve">
<g>
	<path d="M139.108,0.12C62.281,0.12,0,62.401,0,139.227c0,12.882,1.759,25.351,5.036,37.19c1.312,4.741,2.862,9.383,4.65,13.906
		l4.217,9.585l125.206,231.364l125.37-231.693l3.801-8.639c1.891-4.719,3.53-9.566,4.902-14.524
		c3.277-11.839,5.036-24.308,5.036-37.19C278.217,62.401,215.936,0.12,139.108,0.12z M139.113,207.167
		c-38.162,0-69.205-31.044-69.205-69.205c0-38.162,31.044-69.205,69.205-69.205c38.162,0,69.205,31.044,69.205,69.205
		C208.319,176.124,177.275,207.167,139.113,207.167z"/>
	<path d="M139.113,84.069c-29.713,0-53.893,24.18-53.893,53.893c0,29.713,24.18,53.893,53.893,53.893
		c29.713,0,53.893-24.18,53.893-53.893C193.006,108.249,168.826,84.069,139.113,84.069z"/>
	<path d="M378.984,267.849c-61.313,0-111.016,49.703-111.016,111.016c0,61.312,49.703,111.016,111.016,111.016
		S490,440.176,490,378.865C490,317.552,440.297,267.849,378.984,267.849z M426.956,416.009l-10.826,10.826l-37.145-37.145
		l-37.145,37.145l-10.826-10.826l37.145-37.145l-37.145-37.145l10.826-10.826l37.145,37.145l37.145-37.145l10.826,10.826
		l-37.145,37.145L426.956,416.009z"/>
</g>
<g>
</g>
<g>
</g>
<g>
</g>
<g>
</g>
<g>
</g>
<g>
</g>
<g>
</g>
<g>
</g>
<g>
</g>
<g>
</g>
<g>
</g>
<g>
</g>
<g>
</g>
<g>
</g>
<g>
</g>
</svg>
