<?xml version="1.0" encoding="iso-8859-1"?>
<!-- Generator: Adobe Illustrator 19.0.0, SVG Export Plug-In . SVG Version: 6.00 Build 0)  -->
<svg version="1.1" id="Capa_1" xmlns="http://www.w3.org/2000/svg" xmlns:xlink="http://www.w3.org/1999/xlink" x="0px" y="0px"
	 viewBox="0 0 490 490" style="enable-background:new 0 0 490 490;" xml:space="preserve">
<g>
	<path d="M94.208,59.321c-18.767,0-34.035,15.268-34.035,34.034c0,18.752,15.268,34.02,34.035,34.02
		c18.752,0,34.019-15.268,34.019-34.02C128.227,74.589,112.96,59.321,94.208,59.321z"/>
	<path d="M395.792,257.352c-18.752,0-34.019,15.268-34.019,34.034c0,18.752,15.268,34.02,34.019,34.02
		c18.767,0,34.034-15.268,34.034-34.02C429.827,272.619,414.559,257.352,395.792,257.352z"/>
	<path d="M395.799,198.033c-52.026,0-94.201,42.175-94.201,94.201c0,8.723,1.192,17.167,3.41,25.184
		c0.889,3.21,1.938,6.353,3.149,9.417l2.855,6.491l24.709,45.659h-97.54V187.13h-87.252l28.17-52.06l2.575-5.85
		c1.28-3.195,2.39-6.477,3.319-9.835c2.219-8.017,3.41-16.461,3.41-25.184C188.402,42.175,146.227,0,94.201,0
		C42.176,0,0,42.175,0,94.201c0,8.723,1.191,17.167,3.41,25.184c0.888,3.21,1.937,6.353,3.148,9.417l2.856,6.491l84.787,156.675
		l48.442-89.525h80.225v191.855h121.139L395.799,490l84.897-156.898l2.575-5.85c1.28-3.195,2.39-6.478,3.319-9.835
		c2.22-8.017,3.41-16.461,3.41-25.184C490,240.207,447.824,198.033,395.799,198.033z M94.208,142.687
		c-27.216,0-49.347-22.131-49.347-49.332c0-27.216,22.131-49.347,49.347-49.347c27.201,0,49.332,22.131,49.332,49.347
		C143.54,120.556,121.408,142.687,94.208,142.687z M395.792,340.718c-27.201,0-49.332-22.131-49.332-49.332
		c0-27.216,22.131-49.347,49.332-49.347c27.216,0,49.347,22.131,49.347,49.347C445.139,318.587,423.008,340.718,395.792,340.718z"/>
</g>
<g>
</g>
<g>
</g>
<g>
</g>
<g>
</g>
<g>
</g>
<g>
</g>
<g>
</g>
<g>
</g>
<g>
</g>
<g>
</g>
<g>
</g>
<g>
</g>
<g>
</g>
<g>
</g>
<g>
</g>
</svg>
