<?xml version="1.0" encoding="iso-8859-1"?>
<!-- Generator: Adobe Illustrator 19.0.0, SVG Export Plug-In . SVG Version: 6.00 Build 0)  -->
<svg version="1.1" id="Capa_1" xmlns="http://www.w3.org/2000/svg" xmlns:xlink="http://www.w3.org/1999/xlink" x="0px" y="0px"
	 viewBox="0 0 490 490" style="enable-background:new 0 0 490 490;" xml:space="preserve">
<g>
	<path d="M94.208,59.321c-18.767,0-34.035,15.268-34.035,34.034c0,18.752,15.268,34.02,34.035,34.02
		c18.752,0,34.019-15.268,34.019-34.02C128.227,74.589,112.96,59.321,94.208,59.321z"/>
	<path d="M94.201,0C42.176,0,0,42.175,0,94.201c0,8.723,1.191,17.167,3.41,25.184c0.888,3.21,1.937,6.353,3.148,9.417l2.856,6.491
		l84.787,156.675l84.897-156.898l2.575-5.85c1.28-3.195,2.39-6.478,3.319-9.835c2.22-8.017,3.41-16.461,3.41-25.184
		C188.402,42.175,146.227,0,94.201,0z M94.208,142.687c-27.216,0-49.347-22.131-49.347-49.332c0-27.216,22.131-49.347,49.347-49.347
		c27.201,0,49.332,22.131,49.332,49.347C143.54,120.556,121.408,142.687,94.208,142.687z"/>
	<path d="M395.792,257.352c-18.752,0-34.019,15.268-34.019,34.034c0,18.752,15.268,34.02,34.019,34.02
		c18.767,0,34.034-15.268,34.034-34.02C429.827,272.619,414.559,257.352,395.792,257.352z"/>
	<path d="M395.799,198.033c-52.026,0-94.201,42.175-94.201,94.201c0,8.723,1.192,17.167,3.41,25.184
		c0.889,3.21,1.938,6.353,3.149,9.417l2.855,6.491L395.799,490l84.897-156.898l2.575-5.85c1.28-3.195,2.39-6.478,3.319-9.835
		c2.22-8.017,3.41-16.461,3.41-25.184C490,240.207,447.825,198.033,395.799,198.033z M395.792,340.718
		c-27.201,0-49.332-22.131-49.332-49.332c0-27.216,22.131-49.347,49.332-49.347c27.216,0,49.347,22.131,49.347,49.347
		C445.139,318.587,423.008,340.718,395.792,340.718z"/>
	<path d="M300.064,384.996l-0.508-15.313c4.905-0.15,10.004-0.508,15.313-1.092l1.645,15.223
		C310.815,384.427,305.327,384.816,300.064,384.996z M283.435,384.801c-5.877-0.344-11.44-0.987-16.673-1.914l2.632-15.073
		c4.695,0.807,9.69,1.391,14.939,1.705L283.435,384.801z M250.193,378.76c-5.742-1.944-11.081-4.307-15.866-7.058l7.596-13.279
		c3.933,2.243,8.359,4.202,13.174,5.832L250.193,378.76z M220.017,360.995c-4.396-4.337-8.06-9.197-10.901-14.445l13.458-7.297
		c2.123,3.918,4.89,7.567,8.21,10.856L220.017,360.995z M202.97,329.533c-0.942-4.531-1.421-9.331-1.421-14.251l0.075-3.454
		l15.313,0.658l-0.075,2.796c0,3.888,0.374,7.626,1.092,11.14L202.97,329.533z M219,298.175l-14.894-3.529
		c1.256-5.309,3.006-10.767,5.204-16.225l14.206,5.712C221.602,288.889,220.092,293.614,219,298.175z M229.946,270.511
		l-13.458-7.267c1.974-3.679,4.157-7.387,6.55-11.126l1.749-2.841l13.159,7.836l-1.974,3.215
		C233.774,263.782,231.771,267.161,229.946,270.511z M245.438,241.501l-14.385-5.264c1.675-4.576,2.722-9.122,3.11-13.518
		l15.253,1.346C248.907,229.792,247.577,235.654,245.438,241.501z M233.281,209.306c-1.002-4.292-2.707-8.538-5.054-12.636
		l13.249-7.656c3.125,5.398,5.383,11.051,6.729,16.823L233.281,209.306z M219.703,185.35c-3.11-3.335-6.774-6.639-10.886-9.825
		l9.361-12.112c4.77,3.679,9.062,7.552,12.74,11.499L219.703,185.35z M196.39,167.152c-4.636-2.766-9.226-5.144-13.443-7.133
		l6.55-13.847c4.636,2.198,9.645,4.785,14.729,7.821L196.39,167.152z"/>
</g>
<g>
</g>
<g>
</g>
<g>
</g>
<g>
</g>
<g>
</g>
<g>
</g>
<g>
</g>
<g>
</g>
<g>
</g>
<g>
</g>
<g>
</g>
<g>
</g>
<g>
</g>
<g>
</g>
<g>
</g>
</svg>
