<?xml version="1.0" encoding="iso-8859-1"?>
<!-- Generator: Adobe Illustrator 18.0.0, SVG Export Plug-In . SVG Version: 6.00 Build 0)  -->
<!DOCTYPE svg PUBLIC "-//W3C//DTD SVG 1.1//EN" "http://www.w3.org/Graphics/SVG/1.1/DTD/svg11.dtd">
<svg version="1.1" id="Capa_1" xmlns="http://www.w3.org/2000/svg" xmlns:xlink="http://www.w3.org/1999/xlink" x="0px" y="0px"
	 viewBox="0 0 209.876 209.876" style="enable-background:new 0 0 209.876 209.876;" xml:space="preserve">
<path d="M202.376,147.989H67.318c-2.604-4.536-7.486-7.598-13.092-7.598c-5.606,0-10.487,3.062-13.092,7.598H25.168
	c-5.606,0-10.168-4.562-10.168-10.168s4.562-10.168,10.168-10.168h94.853c2.712,4.022,7.31,6.668,12.527,6.668
	c5.216,0,9.814-2.646,12.527-6.668h24.781c12.525,0,22.715-10.19,22.715-22.715s-10.19-22.715-22.715-22.715H59.47
	c-5.606,0-10.168-4.562-10.168-10.168s4.562-10.168,10.168-10.168h16.579c2.604,4.536,7.486,7.598,13.092,7.598
	c5.606,0,10.487-3.062,13.092-7.598h45.413c4.142,0,7.5-3.358,7.5-7.5s-3.358-7.5-7.5-7.5h-45.413
	c-2.605-4.536-7.486-7.598-13.091-7.598c-5.606,0-10.487,3.062-13.091,7.598H59.47c-13.877,0-25.168,11.291-25.168,25.168
	S45.593,97.223,59.47,97.223h110.385c4.254,0,7.715,3.461,7.715,7.715s-3.461,7.715-7.715,7.715h-23.73
	c-2.445-5.042-7.598-8.528-13.578-8.528c-5.98,0-11.133,3.486-13.578,8.528H25.168C11.291,112.653,0,123.944,0,137.821
	s11.291,25.168,25.168,25.168h15.967c2.605,4.536,7.486,7.598,13.091,7.598c5.606,0,10.487-3.062,13.091-7.598h135.058
	c4.142,0,7.5-3.358,7.5-7.5S206.518,147.989,202.376,147.989z"/>
<g>
</g>
<g>
</g>
<g>
</g>
<g>
</g>
<g>
</g>
<g>
</g>
<g>
</g>
<g>
</g>
<g>
</g>
<g>
</g>
<g>
</g>
<g>
</g>
<g>
</g>
<g>
</g>
<g>
</g>
</svg>
