<?xml version="1.0" encoding="UTF-8" standalone="no"?>
<!DOCTYPE svg PUBLIC "-//W3C//DTD SVG 1.1//EN" "http://www.w3.org/Graphics/SVG/1.1/DTD/svg11.dtd">
<svg version="1.1" xmlns="http://www.w3.org/2000/svg" xmlns:xlink="http://www.w3.org/1999/xlink" preserveAspectRatio="xMidYMid meet" viewBox="0 0 200 250" width="200" height="250"><defs><path d="M0 0L200 0L200 250L0 250L0 0Z" id="akMgRqXB"></path><path d="M196 149.99C196 204.08 152.54 248 98.99 248C45.45 248 1.98 204.09 1.98 150.01C1.97 95.92 45.44 52 98.98 52C152.52 52 195.99 95.91 196 149.99Z" id="kSeI0uiYM"></path><path d="M87.92 52L73.04 37.25L4.41 37.25L4.41 5.39L196 5.39L196 37.25L128.92 37.25L114.33 53.92L114.33 153L87.92 153L87.92 52Z" id="d57HyMGP5Y"></path><path d="M174.96 29.9L174.96 22.01L10.78 22.01L10.78 18.92L174.96 18.92L174.96 12.75L188.73 21.32L174.96 29.9Z" id="ddGII0TeA"></path></defs><g><g><g><use xlink:href="#akMgRqXB" opacity="1" fill="#46a594" fill-opacity="0"></use></g><g><g><use xlink:href="#kSeI0uiYM" opacity="1" fill-opacity="0" stroke="#ffffff" stroke-width="4" stroke-opacity="1"></use></g></g><g><use xlink:href="#d57HyMGP5Y" opacity="1" fill="#61aa9d" fill-opacity="0"></use><g><use xlink:href="#d57HyMGP5Y" opacity="1" fill-opacity="0" stroke="#ffffff" stroke-width="4" stroke-opacity="1"></use></g></g><g><use xlink:href="#ddGII0TeA" opacity="1" fill="#ffffff" fill-opacity="1"></use><g><use xlink:href="#ddGII0TeA" opacity="1" fill-opacity="0" stroke="#ffffff" stroke-width="4" stroke-opacity="1"></use></g></g></g></g></svg>